<svg width="15" height="16" viewBox="0 0 15 16" fill="none" xmlns="http://www.w3.org/2000/svg">
<path d="M14.6694 5.0139V10.9226C14.6694 11.5685 14.3114 12.1615 13.733 12.4844L8.41164 15.4388C8.22985 15.5394 8.03705 15.6082 7.83323 15.6506C7.80018 15.6559 7.76713 15.6611 7.72857 15.6664C7.69001 15.6717 7.65695 15.6717 7.6239 15.677C7.60738 15.677 7.59085 15.677 7.57433 15.6823C7.51373 15.6876 7.45314 15.6876 7.39254 15.6823C7.365 15.6823 7.34296 15.6823 7.31542 15.677H7.29339C7.24381 15.6717 7.18872 15.6664 7.13914 15.6559L7.11711 15.6506L7.08406 15.6453C6.89126 15.6082 6.70396 15.5394 6.53319 15.4441L1.21186 12.4844C0.633452 12.1615 0.275391 11.5685 0.275391 10.9226V5.0139C0.275391 4.86565 0.291917 4.7227 0.330477 4.57975C0.330477 4.56916 0.335986 4.56386 0.335986 4.55327C0.335986 4.54269 0.335986 4.54798 0.335986 4.54269C0.352511 4.50033 0.369037 4.45268 0.385563 4.41032C0.402089 4.36267 0.424124 4.30973 0.446158 4.26208C0.457175 4.2409 0.468193 4.21972 0.47921 4.19854C0.495736 4.16678 0.51777 4.12971 0.534296 4.09795C0.567348 4.03971 0.605908 3.98676 0.649978 3.92852C0.798711 3.73263 0.991513 3.57379 1.21186 3.45202L6.5387 0.497682C7.11711 0.174718 7.83323 0.174718 8.41715 0.497682L13.7385 3.45202C13.9423 3.5685 14.1241 3.71674 14.2728 3.89676C14.2893 3.91793 14.3059 3.93911 14.3279 3.96558C14.3499 3.99206 14.361 4.00794 14.372 4.02912C14.394 4.06089 14.416 4.09795 14.4381 4.13501C14.4601 4.17207 14.4821 4.20913 14.4987 4.24619C14.5097 4.27267 14.5207 4.29384 14.5317 4.32032C14.5483 4.35738 14.5593 4.39444 14.5758 4.42621C14.6033 4.50562 14.6254 4.58504 14.6419 4.66975C14.6639 4.78623 14.6694 4.90271 14.6694 5.0139Z" fill="#2BB673"/>
<g opacity="0.54">
<path d="M14.6747 4.59563C14.6472 4.6274 14.6141 4.65387 14.5756 4.67505L12.5319 5.72866C12.598 5.73924 12.6696 5.73925 12.7412 5.73395C12.8734 5.73395 13.0111 5.73924 13.1433 5.74983C13.2149 5.75513 13.2921 5.7869 13.2866 5.86631C13.281 5.94573 13.2039 6.03044 13.1433 6.08339C12.9946 6.20516 12.8183 6.28458 12.6255 6.32164C12.4327 6.3587 12.2344 6.35341 12.0471 6.31105C11.959 6.28987 11.8708 6.25281 11.7992 6.19457C11.7772 6.17869 11.7552 6.16281 11.7386 6.14163L9.3589 7.36995C9.58476 7.44937 9.83264 7.39643 10.0695 7.35936C10.1521 7.34877 10.2403 7.35407 10.2788 7.43878C10.3119 7.5129 10.2844 7.59762 10.2568 7.66645C10.1797 7.85705 10.0475 8.02118 9.8712 8.13766C9.68942 8.24884 9.49662 8.21707 9.33136 8.0953C9.16059 7.96823 9.00635 7.81999 8.87414 7.65056C8.86863 7.64527 8.86312 7.63468 8.86312 7.62938L8.15251 7.9947C8.02581 8.05824 7.94318 8.18531 7.94318 8.32296L7.91013 10.8643C7.92115 10.8643 7.92666 10.859 7.93768 10.859C7.99827 10.8326 8.04234 10.7849 8.05887 10.7267C8.0809 10.6631 8.09192 10.5996 8.09743 10.5361L8.13048 10.3031C8.1415 10.229 8.15251 10.1602 8.16353 10.086C8.16904 10.0331 8.18556 9.98014 8.22412 9.93779C8.25718 9.90073 8.31777 9.88484 8.36735 9.90602C8.40591 9.9272 8.43896 9.96426 8.44998 10.0066C8.47201 10.0596 8.48303 10.1178 8.49405 10.1707C8.50506 10.1972 8.51057 10.2237 8.51057 10.2555C8.51608 10.2978 8.5271 10.3402 8.53261 10.3825C8.53812 10.4408 8.54362 10.4937 8.54362 10.552C8.75846 10.4831 8.85762 10.229 8.95126 10.049C9.00635 9.94308 9.05593 9.8319 9.11652 9.72601C9.1661 9.64659 9.25424 9.56717 9.3589 9.59894C9.43051 9.63071 9.48009 9.69954 9.48009 9.77366C9.49111 9.86896 9.4856 9.95897 9.46357 10.049C9.44704 10.1496 9.40848 10.2396 9.34789 10.3243C9.27627 10.409 9.19364 10.4778 9.09449 10.5255C8.92923 10.6102 8.75295 10.6737 8.56566 10.7002L8.55464 10.7055C8.55464 10.7055 8.54913 10.7055 8.54913 10.7108C8.54913 10.732 8.54362 10.7584 8.54362 10.7796C8.48303 11.1502 8.25167 11.4785 7.91564 11.6638L7.89911 12.9874C7.95971 12.998 8.02031 12.9927 8.07539 12.9821C8.23514 12.9504 8.37837 12.8762 8.49405 12.7703C8.58218 12.6856 8.66481 12.5903 8.76948 12.5215C8.85762 12.4686 8.98982 12.4262 9.08347 12.4897C9.19364 12.5586 9.1661 12.6962 9.11652 12.7968C9.08898 12.8498 9.06144 12.8974 9.02838 12.9451C9.20466 13.0139 9.41399 13.0139 9.59577 12.9874C9.78307 12.961 9.95934 12.8974 10.1191 12.7968C10.1521 12.7756 10.1797 12.7545 10.2127 12.728C10.1081 12.6698 10.0254 12.5797 9.97036 12.4792C9.89875 12.3574 9.84366 12.2303 9.81061 12.0927C9.74451 11.8597 9.76103 11.6056 9.86019 11.3832C9.90426 11.2773 9.98138 11.182 10.0805 11.1185C10.1742 11.0602 10.2954 11.0655 10.3835 11.1291C10.4441 11.182 10.4716 11.2614 10.4661 11.3355C10.6149 11.3673 10.7746 11.3144 10.9013 11.2349C11.039 11.1502 11.1547 11.039 11.2373 10.9067C11.2429 10.8961 11.2484 10.8802 11.2594 10.8696C11.0445 10.9014 10.8187 10.9014 10.6039 10.8696C10.4992 10.8537 10.3945 10.822 10.3009 10.7743C10.2072 10.7161 10.1356 10.6367 10.086 10.5414C10.0254 10.4461 10.0034 10.3402 10.0144 10.229C10.031 10.139 10.1026 10.0331 10.2127 10.0437C10.3284 10.049 10.3945 10.1549 10.4496 10.2396C10.4937 10.3137 10.5488 10.3772 10.6149 10.4408C10.703 10.3984 10.7471 10.2925 10.7746 10.2025C10.8077 10.086 10.8297 9.96956 10.8352 9.84778C10.8462 9.74719 10.8628 9.6413 10.8903 9.5407C10.9123 9.4454 10.9619 9.35539 11.028 9.27598C11.0941 9.20715 11.1988 9.17538 11.2814 9.23362C11.364 9.29186 11.3806 9.40304 11.3971 9.49305C11.4081 9.55658 11.4081 9.62541 11.3916 9.68895C11.4852 9.68895 11.5734 9.65718 11.6395 9.59365C11.7331 9.50364 11.7992 9.38716 11.8378 9.26539C11.8598 9.20715 11.8819 9.14361 11.9039 9.08537C11.9259 9.02713 11.9424 8.9636 11.9645 8.90536C11.9975 8.81535 12.0747 8.72005 12.1848 8.72535C12.284 8.73594 12.3721 8.80476 12.3997 8.89477C12.4272 9.00066 12.4272 9.11185 12.3886 9.21774C12.3225 9.4401 12.1518 9.60423 11.948 9.72601C11.7607 9.83719 11.5458 9.9272 11.32 9.89543C11.2814 9.96956 11.2429 10.0437 11.1933 10.1178C11.0831 10.2925 10.9344 10.4566 10.7306 10.5308C10.8187 10.5731 10.9123 10.6102 11.0115 10.6314C11.0776 10.6473 11.1382 10.6578 11.2043 10.6684C11.2484 10.679 11.2979 10.6843 11.3475 10.679C11.3751 10.6208 11.3971 10.5625 11.4191 10.5096C11.4412 10.4567 11.4632 10.3719 11.5238 10.3243C11.5734 10.2925 11.634 10.2766 11.6946 10.2872C11.959 10.319 11.9204 10.589 11.8433 10.7955C12.1242 10.8749 12.4327 10.7902 12.631 10.5837C12.6751 10.5414 12.7137 10.4884 12.7412 10.4355C12.7687 10.3825 12.7908 10.3243 12.8238 10.2713C12.8569 10.2237 12.9065 10.1866 12.9615 10.1655C13.0166 10.1337 13.0827 10.1284 13.1488 10.139C13.2039 10.1655 13.248 10.2025 13.2755 10.2502C13.3141 10.3031 13.3472 10.3613 13.3692 10.4196C13.4022 10.5467 13.3361 10.6684 13.248 10.7584C13.0717 10.9279 12.8348 11.039 12.587 11.0655C12.306 11.1026 12.0196 11.0602 11.7386 11.0073C11.6009 11.2244 11.364 11.3726 11.1272 11.4679C10.9013 11.5579 10.6534 11.6003 10.4055 11.5844C10.3835 11.6744 10.356 11.7591 10.3339 11.8491C10.2899 12.0503 10.2844 12.2991 10.4276 12.458L10.4551 12.4103C10.5433 12.278 10.6589 12.1191 10.8407 12.1032C11.0225 12.0874 11.0831 12.2885 11.0721 12.4262C11.0556 12.5903 10.9784 12.7439 10.8517 12.8551C10.714 12.9768 10.5543 13.0668 10.378 13.1198C10.1852 13.1833 9.98689 13.2363 9.78858 13.268C9.45255 13.3157 9.1055 13.3104 8.76948 13.2469C8.62625 13.3898 8.4665 13.5063 8.28472 13.6016C8.16353 13.6651 8.03132 13.7234 7.92666 13.824C7.90462 13.8451 7.8881 13.8663 7.87157 13.8875L7.84954 15.7565C7.84954 15.7776 7.84403 15.8041 7.83852 15.8253C7.80547 15.8306 7.76691 15.8306 7.73386 15.8359C7.71733 15.8359 7.7008 15.8359 7.68428 15.8412C7.62368 15.8465 7.56309 15.8465 7.50249 15.8412C7.47495 15.8412 7.45292 15.8412 7.42537 15.8359H7.40334C7.38681 15.8147 7.3813 15.7829 7.3813 15.7565L7.40334 14.1257C7.37579 14.041 7.33173 13.9669 7.26562 13.9034L7.26011 13.8981C7.16096 13.7975 7.02875 13.7392 6.90205 13.6757C6.72027 13.5804 6.56052 13.4639 6.41729 13.321C6.08127 13.3845 5.73973 13.3951 5.3982 13.3422C5.19438 13.3104 5.00158 13.2627 4.80877 13.1939C4.6325 13.141 4.47275 13.051 4.33503 12.9292C4.20833 12.8127 4.13121 12.6645 4.11469 12.5003C4.10367 12.3627 4.15876 12.1615 4.34605 12.1774C4.53334 12.1932 4.64351 12.3521 4.73165 12.4844L4.7592 12.5321C4.90242 12.368 4.89691 12.1244 4.85284 11.9232C4.83081 11.8332 4.80877 11.7432 4.78123 11.6585C4.53334 11.6744 4.27995 11.632 4.04858 11.5367C3.81171 11.4414 3.57484 11.2932 3.43712 11.0761C3.15618 11.1291 2.86974 11.1714 2.5888 11.1343C2.34091 11.1079 2.10404 11.002 1.92776 10.8273C1.83962 10.7373 1.76801 10.6155 1.80657 10.4884C1.8286 10.4249 1.86166 10.3666 1.90022 10.319C1.92776 10.2713 1.97183 10.229 2.02692 10.2078C2.09302 10.1919 2.15912 10.2025 2.21421 10.2343C2.26929 10.2555 2.31887 10.2925 2.35192 10.3402C2.38498 10.3931 2.40701 10.4514 2.43455 10.5043C2.4621 10.5572 2.50066 10.6049 2.54473 10.6525C2.74304 10.859 3.05152 10.9437 3.33246 10.8643C3.25534 10.6578 3.22229 10.3878 3.48119 10.3561C3.54179 10.3455 3.60238 10.3561 3.65196 10.3931C3.70705 10.4355 3.72908 10.5149 3.75662 10.5784C3.78417 10.642 3.8062 10.6949 3.82824 10.7478C3.87782 10.7478 3.92188 10.7478 3.97146 10.7373C4.03757 10.7267 4.09816 10.7161 4.16426 10.7002C4.26342 10.679 4.35707 10.6473 4.4452 10.5996C4.24138 10.5255 4.09816 10.3613 3.98248 10.1866C3.93841 10.1178 3.89434 10.0437 3.85578 9.96426C3.63544 9.99603 3.41509 9.90602 3.2278 9.79484C3.02398 9.67306 2.85321 9.51423 2.78711 9.28656C2.74855 9.18067 2.74304 9.06949 2.77609 8.9636C2.80363 8.8683 2.89177 8.80476 2.99093 8.79418C3.1011 8.78888 3.17822 8.88418 3.21127 8.97419C3.23331 9.03243 3.24983 9.09596 3.27187 9.1542C3.2939 9.21244 3.31593 9.27598 3.33797 9.33421C3.37653 9.45599 3.44814 9.56717 3.53628 9.66247C3.60238 9.72601 3.69052 9.75778 3.78417 9.75778C3.77315 9.69424 3.76764 9.62541 3.77866 9.56188C3.78968 9.47187 3.81722 9.36069 3.89434 9.30245C3.97146 9.24421 4.08714 9.28127 4.14774 9.3448C4.21384 9.42422 4.25791 9.51423 4.28545 9.60953C4.313 9.71012 4.32952 9.81072 4.34054 9.91661C4.35156 10.0331 4.37359 10.1549 4.40113 10.2713C4.42868 10.3613 4.47275 10.4672 4.56089 10.5096C4.62148 10.4514 4.68208 10.3825 4.72614 10.3084C4.78123 10.2237 4.84733 10.1178 4.96302 10.1125C5.0787 10.1072 5.1448 10.2078 5.16133 10.2978C5.17234 10.4037 5.15031 10.5149 5.08971 10.6102C5.04014 10.7055 4.96852 10.7902 4.87488 10.8431C4.78123 10.8961 4.68208 10.9279 4.57741 10.9385C4.36257 10.9702 4.13672 10.9702 3.92188 10.9385C3.92739 10.949 3.9329 10.9649 3.94392 10.9755C4.02655 11.1079 4.14223 11.2244 4.27994 11.3038C4.40664 11.3779 4.56639 11.4361 4.71513 11.4044C4.70962 11.3249 4.73716 11.2508 4.79776 11.1979C4.88589 11.1343 5.00708 11.1291 5.10073 11.1873C5.19989 11.2508 5.27701 11.3461 5.32108 11.452C5.42023 11.6744 5.43676 11.9285 5.37065 12.1615C5.3376 12.2938 5.28252 12.4262 5.2109 12.548C5.15582 12.6486 5.07319 12.7386 4.96852 12.7968C4.99607 12.8233 5.02912 12.8445 5.06217 12.8657C5.22192 12.9662 5.3982 13.0298 5.58549 13.0563C5.76728 13.0827 5.9766 13.088 6.15288 13.0139C6.11983 12.9662 6.09228 12.9133 6.06474 12.8657C6.01516 12.7703 5.98211 12.6327 6.09779 12.5586C6.19695 12.5003 6.32365 12.5374 6.41179 12.5903C6.52196 12.6539 6.59908 12.7545 6.68722 12.8392C6.8029 12.9504 6.94612 13.0192 7.10587 13.051C7.15545 13.0615 7.20503 13.0615 7.25461 13.0563L7.27113 11.7326C6.9296 11.5473 6.69273 11.2191 6.63764 10.8431C6.63213 10.822 6.63213 10.7955 6.63213 10.7743H6.62662L6.6156 10.769C6.42831 10.7426 6.24653 10.6843 6.08127 10.5943C5.98211 10.5467 5.89397 10.4778 5.82787 10.3931C5.76728 10.3137 5.72871 10.2184 5.71219 10.1178C5.69015 10.0278 5.68465 9.93249 5.69566 9.84249C5.69566 9.76836 5.74524 9.69954 5.81685 9.66777C5.92152 9.636 6.00965 9.71542 6.05372 9.79484C6.11432 9.89543 6.1639 10.0066 6.21898 10.1178C6.30712 10.2978 6.41179 10.552 6.62662 10.6208C6.62662 10.5625 6.63213 10.5096 6.63764 10.4514C6.64315 10.409 6.64866 10.3666 6.65967 10.3243C6.65967 10.2978 6.66518 10.266 6.6762 10.2396C6.68722 10.1813 6.70374 10.1284 6.72027 10.0754C6.73129 10.0331 6.76434 9.99603 6.8029 9.97485C6.85248 9.95367 6.90756 9.96956 6.94612 10.0066C6.98468 10.049 7.00121 10.1019 7.00672 10.1549C7.01773 10.229 7.02875 10.2978 7.03977 10.3719L7.07282 10.6049C7.07833 10.6684 7.09486 10.7373 7.11138 10.7955C7.12791 10.8537 7.17198 10.9014 7.23257 10.9279C7.2491 10.9332 7.27113 10.9385 7.28766 10.9385L7.32071 8.31238C7.32071 8.18531 7.24359 8.06353 7.12791 8.01059L6.36772 7.64527C6.36772 7.65586 6.36221 7.66115 6.3567 7.66645C6.22449 7.83587 6.07025 7.98412 5.89948 8.11118C5.73422 8.23296 5.54142 8.26472 5.35964 8.15354C5.18336 8.03706 5.05115 7.87293 4.97403 7.68233C4.94098 7.6135 4.91895 7.52879 4.952 7.45467C4.99056 7.37525 5.0787 7.36466 5.16133 7.37525C5.38718 7.41231 5.62405 7.46525 5.8499 7.39643L3.40958 6.23163L3.37102 6.2634C3.29941 6.31635 3.21127 6.3587 3.12313 6.37988C2.93584 6.42753 2.73753 6.42753 2.54473 6.39047C2.35192 6.35341 2.17565 6.27399 2.02692 6.15222C1.96632 6.09927 1.88369 6.01985 1.88369 5.93514C1.88369 5.85043 1.96081 5.82925 2.02692 5.81866C2.15912 5.80807 2.29684 5.79748 2.42905 5.80278C2.45659 5.80278 2.49515 5.80278 2.5282 5.80807L0.589163 4.87624C0.523059 4.84447 0.467973 4.79153 0.44043 4.7227C0.44043 4.7174 0.44043 4.71741 0.44043 4.71211C0.451447 4.66446 0.467973 4.61681 0.484499 4.56916C0.501025 4.52151 0.523059 4.46856 0.545094 4.42091C0.556111 4.39973 0.567128 4.37856 0.578145 4.35738C0.666284 4.31502 0.765439 4.31502 0.853577 4.35738L2.45659 5.12508C2.39599 5.05096 2.3354 4.98213 2.26929 4.9133C2.19768 4.83918 2.13158 4.75976 2.07098 4.68034C2.01039 4.60093 1.97734 4.51092 1.96632 4.41562C1.96632 4.32561 2.03793 4.25149 2.13158 4.25149C2.22523 4.2409 2.30235 4.29914 2.37396 4.35738C2.5282 4.48445 2.64939 4.63799 2.74855 4.80741C2.84219 4.97684 2.90279 5.16214 2.93033 5.35275L4.60495 6.15222C4.58843 6.08339 4.56639 6.01985 4.53334 5.95632C4.47826 5.83984 4.41766 5.72336 4.35707 5.60688C4.29647 5.4957 4.24689 5.37922 4.20833 5.25744C4.1863 5.17273 4.15325 5.03508 4.22486 4.96095C4.36808 4.8233 4.62699 5.07214 4.71513 5.16744C4.86386 5.33157 4.96302 5.53276 5.00158 5.74983C5.01259 5.82396 5.07319 6.19457 5.00708 6.33752L6.35119 6.97816C6.35119 6.95698 6.35119 6.93051 6.34568 6.90933C6.33466 6.87227 6.31814 6.83521 6.30712 6.79815C6.2961 6.76108 6.26856 6.71873 6.25203 6.68167C6.19695 6.55989 6.1639 6.41165 6.26856 6.30576C6.30712 6.2634 6.36772 6.24222 6.4228 6.24752C6.4834 6.25811 6.53848 6.29517 6.57154 6.34282C6.64866 6.454 6.68722 6.59166 6.67069 6.72932C6.66518 6.85639 6.62662 6.97816 6.55501 7.07875L7.41436 7.49173C7.55207 7.55526 7.70631 7.55526 7.84403 7.48643L8.66481 7.06287C8.65931 7.05758 8.6538 7.05228 8.64829 7.04699C8.64278 7.04169 8.63727 7.0364 8.63176 7.0311V7.02581C8.54362 6.92521 8.51057 6.78226 8.49956 6.65519C8.48303 6.51754 8.51608 6.38517 8.59871 6.2687C8.63176 6.22105 8.68685 6.18398 8.74744 6.17339C8.80804 6.1681 8.86313 6.18928 8.90169 6.23163C9.00635 6.33223 8.9733 6.48577 8.91821 6.60754C8.90169 6.6499 8.87965 6.68696 8.86312 6.72402C8.8466 6.76108 8.84109 6.79815 8.82456 6.83521C8.81355 6.88286 8.81355 6.92521 8.82456 6.97286L10.1687 6.27928C10.086 6.14692 10.1521 5.74983 10.1632 5.67571C10.2017 5.45864 10.3009 5.25744 10.4496 5.09331C10.5377 4.99801 10.7967 4.75447 10.9344 4.88683C11.0115 4.95566 10.9784 5.09332 10.9509 5.18332C10.9123 5.3051 10.8628 5.42157 10.8022 5.53276C10.7471 5.64924 10.681 5.76572 10.6259 5.8822C10.5928 5.94573 10.5708 6.01456 10.5543 6.08339L12.0526 5.31039C12.0747 5.09332 12.1353 4.88153 12.2454 4.68564C12.3391 4.51621 12.4658 4.36267 12.62 4.23561C12.6861 4.17737 12.7632 4.12442 12.8624 4.12971C12.956 4.13501 13.0276 4.20913 13.0276 4.29384C13.0166 4.38915 12.9836 4.47915 12.923 4.55857C12.8624 4.64328 12.7963 4.7227 12.7247 4.79682C12.631 4.88683 12.5484 4.99272 12.4768 5.09861L14.2836 4.16678C14.3277 4.1456 14.3718 4.13501 14.4213 4.12971C14.4379 4.15089 14.4544 4.17207 14.4654 4.19325C14.4874 4.22502 14.5095 4.26208 14.5315 4.29384C14.548 4.30443 14.559 4.32032 14.5701 4.3415C14.5811 4.36267 14.5866 4.38385 14.5921 4.40503C14.6031 4.4315 14.6141 4.45268 14.6252 4.47915C14.6472 4.52151 14.6582 4.55857 14.6747 4.59563Z" fill="#231F20"/>
<path d="M7.59056 15.8623C7.5575 15.8623 7.52996 15.8623 7.49691 15.8623C7.47488 15.8623 7.44733 15.8623 7.41979 15.857H7.39225L7.38674 15.8465C7.37021 15.82 7.35919 15.7882 7.35919 15.7565L7.38123 14.131C7.35369 14.0516 7.30962 13.9775 7.25453 13.9193L7.24902 13.914C7.16639 13.8345 7.06173 13.7816 6.95706 13.7287C6.93503 13.7181 6.9185 13.7075 6.89647 13.6969C6.72019 13.6016 6.55493 13.4851 6.41171 13.3475C6.07568 13.411 5.73415 13.4163 5.39812 13.3686C5.1943 13.3369 4.99599 13.2839 4.80319 13.2204C4.62691 13.1674 4.46165 13.0721 4.32394 12.9504C4.19724 12.8339 4.11461 12.675 4.09808 12.5056C4.09258 12.4156 4.1091 12.2885 4.18622 12.2144C4.23029 12.1721 4.28538 12.1562 4.34597 12.1615C4.53327 12.1774 4.65446 12.3309 4.7481 12.4792L4.76463 12.5003C4.89684 12.3256 4.86929 12.0715 4.83624 11.9285C4.81972 11.865 4.80319 11.7962 4.78666 11.7326L4.77014 11.6797C4.52225 11.6903 4.27436 11.6479 4.04851 11.5526C3.85571 11.4732 3.59129 11.3302 3.43705 11.0973C3.16713 11.1502 2.88068 11.1873 2.59423 11.1502C2.34083 11.1238 2.10396 11.0126 1.92218 10.8379C1.83955 10.7531 1.75141 10.6261 1.79548 10.4831C1.81751 10.4196 1.85056 10.3613 1.89463 10.3031C1.92218 10.2502 1.97175 10.2131 2.02684 10.1866C2.09845 10.1707 2.17557 10.1813 2.23617 10.2131C2.29125 10.2343 2.34634 10.2713 2.37939 10.3243C2.40143 10.3561 2.41795 10.3878 2.43448 10.4249C2.4455 10.4461 2.45651 10.4672 2.46753 10.4884C2.49507 10.5414 2.53363 10.589 2.57219 10.6314C2.765 10.8326 3.04594 10.912 3.31586 10.8431C3.27179 10.7108 3.23323 10.5414 3.30484 10.4302C3.3434 10.3719 3.404 10.3402 3.48663 10.3296C3.55273 10.319 3.61883 10.3296 3.67392 10.3666C3.7235 10.409 3.75104 10.4672 3.76757 10.5255C3.77308 10.5361 3.77858 10.5467 3.77858 10.5572C3.80062 10.6155 3.82265 10.6631 3.84469 10.7161C3.88325 10.7161 3.92732 10.7108 3.96588 10.7055C4.02647 10.6949 4.09258 10.6843 4.15868 10.6684C4.24131 10.6525 4.31843 10.6261 4.39555 10.589C4.2358 10.5202 4.09808 10.3878 3.96588 10.1866C3.92181 10.1178 3.88325 10.049 3.84469 9.98014C3.65739 10.0013 3.44807 9.94308 3.22221 9.80542C2.97983 9.66247 2.83661 9.49305 2.7705 9.28656C2.73194 9.18067 2.72644 9.06419 2.75949 8.95301C2.79254 8.85241 2.88068 8.77829 2.99085 8.7677C3.09551 8.76241 3.18365 8.83653 3.23323 8.9583C3.24976 8.99537 3.26077 9.03243 3.27179 9.06949C3.2773 9.09067 3.28832 9.11714 3.29382 9.13832C3.31586 9.20715 3.33789 9.26539 3.35993 9.31833C3.39849 9.4401 3.46459 9.54599 3.55824 9.636C3.61332 9.68895 3.69045 9.72071 3.76757 9.72601C3.75655 9.66777 3.75655 9.60423 3.76757 9.54599C3.78409 9.4401 3.81164 9.33421 3.88876 9.27597C3.97689 9.21244 4.10359 9.2495 4.1697 9.32363C4.2358 9.40304 4.28538 9.49834 4.31292 9.59894C4.34046 9.69953 4.35699 9.80543 4.36801 9.90602C4.37902 10.0225 4.40106 10.139 4.4286 10.2555C4.45064 10.3296 4.4892 10.4302 4.56632 10.4725C4.6214 10.4196 4.67649 10.3561 4.71505 10.2872L4.72056 10.2819C4.77565 10.1972 4.84726 10.0913 4.96845 10.0807C5.08964 10.0701 5.16676 10.176 5.18879 10.2819C5.19981 10.3931 5.17778 10.5096 5.11718 10.6049C5.0676 10.7055 4.99048 10.7849 4.89684 10.8484C4.79768 10.9014 4.69853 10.9332 4.58835 10.949C4.38453 10.9808 4.17521 10.9808 3.96588 10.9543C4.04851 11.0867 4.16419 11.1979 4.2964 11.2773C4.40106 11.3408 4.54979 11.4044 4.69853 11.3779C4.69853 11.2985 4.73158 11.2244 4.78666 11.1714C4.88582 11.1026 5.01252 11.0973 5.11167 11.1608C5.21634 11.2296 5.29346 11.3249 5.33753 11.4361C5.43668 11.6638 5.45321 11.9232 5.3871 12.1615C5.35405 12.2991 5.29897 12.4262 5.22735 12.5533C5.17227 12.6486 5.09515 12.7333 5.0015 12.7968C5.02353 12.8127 5.04557 12.8286 5.0676 12.8445C5.22185 12.9451 5.39812 13.0086 5.57991 13.0351C5.78923 13.0668 5.97102 13.0563 6.11424 13.0033C6.0867 12.961 6.05916 12.9186 6.03712 12.8709C6.00407 12.8021 5.93246 12.6274 6.07568 12.5427C6.18035 12.4792 6.31806 12.5162 6.41171 12.5745C6.48883 12.6221 6.55493 12.6856 6.61553 12.7492C6.64307 12.7756 6.66511 12.8021 6.69265 12.8233C6.80282 12.9292 6.94605 13.0033 7.10029 13.0298C7.14436 13.0351 7.18292 13.0404 7.22699 13.0404L7.24351 11.7485C6.90198 11.5579 6.67062 11.2296 6.61002 10.8537C6.61002 10.8326 6.60451 10.8167 6.60451 10.7955L6.59349 10.7902C6.4062 10.7637 6.22442 10.7002 6.05916 10.6102C5.96 10.5625 5.87186 10.4937 5.80025 10.4037C5.73966 10.319 5.69559 10.2237 5.67906 10.1178C5.65703 10.0278 5.65152 9.93249 5.66254 9.83719C5.66254 9.75777 5.71762 9.67836 5.79474 9.64659C5.91042 9.60953 6.00958 9.69424 6.05916 9.77895C6.10323 9.85308 6.14179 9.93249 6.18035 10.0066C6.19687 10.0384 6.2134 10.0702 6.22442 10.1019C6.23543 10.1231 6.24645 10.1443 6.25747 10.1707C6.33459 10.3243 6.42824 10.5202 6.59349 10.589C6.59349 10.5414 6.599 10.4937 6.60451 10.4461C6.61002 10.3984 6.62104 10.3561 6.62655 10.3137C6.62655 10.2872 6.63205 10.2555 6.64307 10.2237C6.65409 10.1707 6.67062 10.1125 6.68714 10.0596C6.70367 10.0119 6.73672 9.97485 6.78079 9.94838C6.84138 9.9272 6.90749 9.93779 6.94605 9.98544C6.98461 10.0331 7.00664 10.086 7.01215 10.1443C7.01766 10.1813 7.02317 10.2184 7.02868 10.2608L7.07825 10.5943C7.08376 10.6578 7.10029 10.7214 7.11681 10.7849C7.13334 10.8379 7.1719 10.8802 7.22699 10.9067C7.238 10.912 7.24351 10.912 7.25453 10.912L7.28758 8.30708C7.28758 8.18531 7.21597 8.07412 7.1058 8.02118L6.36213 7.66644C6.36213 7.67174 6.35662 7.67174 6.35662 7.67703C6.22442 7.84646 6.07017 7.9947 5.8939 8.12177C5.7066 8.25943 5.50829 8.27531 5.33202 8.16413C5.15574 8.04235 5.01803 7.87822 4.94091 7.68233C4.89684 7.58173 4.89133 7.50231 4.91887 7.43878C4.95743 7.35936 5.03455 7.33289 5.15023 7.34877L5.21634 7.35936C5.40363 7.39113 5.59643 7.4229 5.77271 7.38054L3.42052 6.24752L3.39298 6.27399C3.31586 6.33223 3.22772 6.36929 3.13958 6.39047C2.94678 6.43812 2.74296 6.43812 2.55016 6.40635C2.35736 6.36929 2.17557 6.28987 2.02684 6.1628C1.95523 6.09927 1.87811 6.01985 1.8726 5.93514C1.8726 5.86102 1.92218 5.81337 2.03235 5.79748C2.16456 5.78689 2.30227 5.77631 2.43999 5.7816H2.4455L0.57807 4.89212C0.506458 4.86036 0.451371 4.80212 0.423828 4.72799V4.7227V4.71211C0.434845 4.66446 0.451371 4.61681 0.473406 4.56916C0.489932 4.52151 0.511966 4.46856 0.534001 4.42091C0.545018 4.39973 0.556035 4.37856 0.567053 4.35738L0.572561 4.35208L0.57807 4.34679C0.671717 4.29914 0.781889 4.29914 0.870027 4.34679L2.39592 5.07743C2.35736 5.02978 2.31329 4.98213 2.26922 4.93448C2.19761 4.86036 2.1315 4.78094 2.07091 4.69623C2.01031 4.61681 1.97175 4.52151 1.96074 4.42091C1.96074 4.32032 2.04337 4.2356 2.14803 4.2356C2.25269 4.22501 2.33532 4.28855 2.40143 4.34679C2.55567 4.47386 2.68237 4.63269 2.77601 4.80212C2.86966 4.97154 2.93025 5.15155 2.9578 5.34216L4.58284 6.11515C4.56632 6.06221 4.54979 6.01456 4.52776 5.96691C4.49471 5.90337 4.46165 5.83455 4.4286 5.77101C4.40106 5.71807 4.37352 5.66512 4.35148 5.61218C4.29089 5.50099 4.24131 5.38451 4.20275 5.26274C4.17521 5.15685 4.14766 5.02449 4.22478 4.95036C4.25783 4.9186 4.3019 4.90271 4.34597 4.90271C4.51123 4.90801 4.70403 5.11449 4.74259 5.15685C4.89133 5.32627 4.99048 5.53276 5.03455 5.74983C5.03455 5.75513 5.11167 6.15751 5.04557 6.33223L6.3401 6.95169C6.3401 6.9411 6.3401 6.93051 6.33459 6.91992C6.32357 6.88286 6.30705 6.8458 6.29603 6.80873C6.29052 6.78756 6.27399 6.76108 6.26298 6.73461C6.25747 6.71873 6.24645 6.70814 6.24094 6.69226C6.16382 6.52283 6.16933 6.38517 6.26298 6.29517C6.30705 6.25281 6.37315 6.22634 6.43374 6.23163C6.49985 6.24222 6.56044 6.27928 6.599 6.33223C6.68163 6.44871 6.71468 6.59166 6.69816 6.72932C6.69265 6.85109 6.6596 6.96757 6.59349 7.06817L7.43631 7.47055C7.56301 7.53408 7.71725 7.52879 7.84395 7.46525L8.6427 7.05228C8.6372 7.04699 8.6372 7.04699 8.63169 7.04169C8.55457 6.95169 8.50499 6.82462 8.49397 6.65519C8.47745 6.51754 8.5105 6.37458 8.59313 6.25811C8.63169 6.20516 8.68677 6.1681 8.75288 6.15751C8.81898 6.15222 8.88509 6.17339 8.92915 6.22104C9.0228 6.31105 9.02831 6.44341 8.95119 6.61813C8.94568 6.63402 8.94017 6.6499 8.92915 6.66049C8.91814 6.68696 8.90712 6.70814 8.8961 6.73461C8.88508 6.75579 8.87958 6.77697 8.87407 6.79814C8.86856 6.81403 8.86305 6.82991 8.85754 6.8458C8.85203 6.87756 8.85203 6.90933 8.85203 6.94639L10.1521 6.27399C10.0749 6.10986 10.1521 5.67571 10.1576 5.67042C10.1961 5.45334 10.2953 5.24685 10.4495 5.07743C10.4881 5.03507 10.6809 4.82859 10.8462 4.82329C10.8957 4.82329 10.9343 4.83918 10.9673 4.87094C11.0555 4.95566 11.0114 5.1092 10.9894 5.18332C10.9508 5.30509 10.9012 5.42157 10.8406 5.53805C10.8131 5.59629 10.7801 5.65983 10.7525 5.71807C10.725 5.77631 10.6919 5.83455 10.6644 5.89278C10.6423 5.94044 10.6203 5.99338 10.6038 6.04633L12.0525 5.2998C12.0746 5.08272 12.1407 4.87094 12.2453 4.67505C12.339 4.50033 12.4657 4.34679 12.6199 4.21972C12.6915 4.16148 12.7742 4.10324 12.8733 4.10854C12.978 4.11383 13.0551 4.19325 13.0551 4.29384C13.0441 4.39444 13.0055 4.48974 12.9449 4.56916C12.8843 4.65387 12.8182 4.73329 12.7466 4.80741C12.6695 4.88153 12.6034 4.96095 12.5428 5.04566L14.278 4.15089C14.3221 4.12971 14.3717 4.11383 14.4268 4.11383H14.4378L14.4433 4.12442C14.4598 4.1456 14.4708 4.16678 14.4874 4.18795C14.5149 4.22501 14.5314 4.25678 14.5535 4.29384C14.57 4.30973 14.5865 4.32561 14.5975 4.34149C14.6086 4.36267 14.6196 4.38914 14.6196 4.41032C14.6306 4.4315 14.6416 4.45797 14.6526 4.47915C14.6691 4.51092 14.6857 4.54798 14.6967 4.58504L14.7022 4.59563L14.6967 4.60622C14.6691 4.64328 14.6361 4.66975 14.592 4.69093L12.6089 5.71277C12.653 5.71807 12.6971 5.71807 12.7466 5.71277C12.8843 5.71277 13.0166 5.71807 13.1543 5.72865C13.2589 5.73924 13.3195 5.78689 13.3195 5.86631C13.3195 5.95102 13.2369 6.03574 13.1653 6.09398C13.0166 6.21575 12.8348 6.30046 12.6365 6.33223C12.4437 6.36929 12.2398 6.364 12.047 6.32164C11.9534 6.30046 11.8653 6.25811 11.7936 6.20516C11.7771 6.19457 11.7606 6.17869 11.7386 6.1628L9.4084 7.35936C9.5957 7.41231 9.79401 7.37525 9.99232 7.34348L10.0639 7.33289C10.1796 7.31171 10.2567 7.34348 10.2953 7.4229C10.3339 7.50761 10.3008 7.60291 10.2733 7.66644C10.1961 7.86234 10.0584 8.02647 9.88215 8.14824C9.70587 8.25943 9.50756 8.24355 9.32027 8.10589C9.14399 7.97882 8.98975 7.82528 8.85754 7.65586L8.85203 7.65056L8.16345 8.00529C8.04226 8.06883 7.96514 8.18531 7.96514 8.31767L7.93209 10.8326C7.98167 10.8114 8.02023 10.769 8.03676 10.7161C8.05879 10.6525 8.06981 10.589 8.07532 10.5255L8.14142 10.0754C8.14693 10.0172 8.16896 9.96426 8.20752 9.91661C8.25159 9.87425 8.3177 9.85837 8.37278 9.87955C8.42236 9.90602 8.4499 9.94308 8.46643 9.99073C8.48846 10.0437 8.49948 10.1019 8.5105 10.1602C8.52151 10.1866 8.52702 10.2184 8.52702 10.2449C8.53804 10.2925 8.54355 10.3349 8.54906 10.3719C8.55457 10.4196 8.56007 10.4672 8.56007 10.5149C8.71983 10.4461 8.81898 10.2555 8.8961 10.1019C8.90712 10.0807 8.91814 10.0543 8.92915 10.0331C8.95119 9.99603 8.96771 9.95897 8.98424 9.9219C9.01729 9.85308 9.05585 9.77895 9.09441 9.71542C9.14399 9.63071 9.24314 9.54599 9.35883 9.58306C9.44146 9.62012 9.49103 9.69424 9.49654 9.77895C9.50756 9.87425 9.50205 9.96955 9.48002 10.0596C9.46349 10.1602 9.41942 10.2555 9.35883 10.3402C9.28721 10.4249 9.19908 10.4937 9.09441 10.5467C8.92915 10.6367 8.75288 10.6949 8.56558 10.7214L8.56007 10.7267C8.56007 10.7426 8.55457 10.7584 8.55457 10.7743V10.7902C8.49397 11.1661 8.26812 11.4891 7.92658 11.685L7.91006 12.9821C7.95963 12.9874 8.00921 12.9874 8.0643 12.9768C8.21854 12.9504 8.35626 12.8762 8.47194 12.7703C8.49948 12.7439 8.52151 12.7227 8.54906 12.6962C8.60965 12.6327 8.67576 12.5692 8.75288 12.5215C8.80245 12.495 8.9622 12.4103 9.0889 12.4897C9.18806 12.5533 9.20459 12.6698 9.12746 12.818C9.10543 12.8657 9.07789 12.908 9.05034 12.9504C9.23213 13.0139 9.43595 13.0033 9.58468 12.9821C9.76647 12.9557 9.94274 12.8921 10.097 12.7915C10.119 12.7756 10.1411 12.7598 10.1631 12.7439C10.0694 12.6803 9.99232 12.6009 9.93723 12.5003C9.86562 12.3786 9.81053 12.2462 9.77748 12.1085C9.71138 11.8703 9.7279 11.6109 9.82706 11.3832C9.87113 11.272 9.95376 11.1767 10.0529 11.1079C10.1521 11.0443 10.2843 11.0496 10.3779 11.1185C10.4385 11.1714 10.4716 11.2508 10.4716 11.3249C10.5928 11.3461 10.725 11.3144 10.8737 11.2244C11.0114 11.1449 11.1216 11.0338 11.2042 10.9014C11.0004 10.9279 10.7911 10.9279 10.5817 10.8961C10.4716 10.8802 10.3724 10.8484 10.2733 10.7955C10.1741 10.7373 10.097 10.6525 10.0474 10.552C9.98681 10.4566 9.96478 10.3402 9.97579 10.229C9.99783 10.1231 10.0805 10.0172 10.1961 10.0225C10.3173 10.0278 10.3834 10.1337 10.4385 10.2131L10.4495 10.229C10.4936 10.2978 10.5432 10.3561 10.5983 10.4143C10.6754 10.3666 10.7139 10.266 10.736 10.1972C10.769 10.086 10.7856 9.96426 10.7966 9.84778C10.8076 9.74189 10.8241 9.64129 10.8517 9.5407C10.8737 9.4401 10.9233 9.3448 10.9894 9.27068C11.061 9.19656 11.1767 9.15949 11.2703 9.22303C11.364 9.28656 11.3805 9.40834 11.3915 9.49305C11.4025 9.55129 11.4025 9.61482 11.3915 9.67306C11.4686 9.66777 11.5458 9.636 11.6008 9.58306C11.689 9.49305 11.7551 9.38186 11.7936 9.26539C11.8212 9.19656 11.8432 9.13832 11.8597 9.08008C11.8653 9.0589 11.8763 9.03772 11.8818 9.01125C11.8928 8.97419 11.9038 8.93183 11.9203 8.89477C11.9369 8.84712 12.0085 8.69887 12.1627 8.70417C12.2729 8.71476 12.3665 8.78888 12.3941 8.88947C12.4271 9.00066 12.4216 9.11714 12.3831 9.22303C12.3225 9.42422 12.1737 9.59364 11.9314 9.74189C11.7 9.87955 11.4962 9.93779 11.3089 9.91661C11.2758 9.99073 11.2318 10.0596 11.1877 10.1284C11.061 10.3296 10.9233 10.4619 10.758 10.5308C10.8351 10.5678 10.9123 10.589 10.9949 10.6102C11.061 10.6261 11.1271 10.6367 11.1877 10.6473C11.2263 10.6578 11.2703 10.6631 11.3089 10.6578C11.3254 10.6208 11.3419 10.5837 11.3585 10.5467L11.3805 10.499C11.386 10.4884 11.3915 10.4778 11.397 10.4619C11.4191 10.409 11.4411 10.3455 11.4907 10.3084C11.5458 10.2713 11.6119 10.2555 11.678 10.266C11.7606 10.2766 11.8212 10.3137 11.8597 10.3719C11.9314 10.4831 11.8928 10.6525 11.8487 10.7849C12.1187 10.8537 12.4051 10.7743 12.5924 10.5731C12.6365 10.5308 12.6695 10.4831 12.6971 10.4302C12.7081 10.409 12.7191 10.3878 12.7301 10.3666C12.7466 10.3349 12.7632 10.2978 12.7852 10.266C12.8238 10.2131 12.8733 10.176 12.9339 10.1549C12.9945 10.1231 13.0661 10.1125 13.1322 10.1284C13.1928 10.1549 13.2369 10.1972 13.27 10.2502C13.3085 10.3031 13.3416 10.3613 13.3636 10.4249C13.4022 10.5678 13.314 10.7002 13.2369 10.7796C13.0551 10.9543 12.8182 11.0655 12.5648 11.092C12.2784 11.1291 11.9809 11.0867 11.722 11.039C11.5678 11.2773 11.3034 11.4202 11.1106 11.4944C10.8847 11.5844 10.6423 11.6267 10.4 11.6161C10.3944 11.6373 10.3889 11.6638 10.3834 11.685C10.3669 11.7432 10.3504 11.8067 10.3394 11.865C10.3008 12.0344 10.2843 12.2727 10.411 12.4368L10.4275 12.4156C10.5211 12.2674 10.6478 12.1138 10.8296 12.0979C10.8902 12.0927 10.9453 12.1085 10.9894 12.1509C11.0665 12.225 11.0885 12.3521 11.083 12.4421C11.0665 12.6115 10.9839 12.7703 10.8572 12.8868C10.7195 13.0086 10.5542 13.1039 10.3779 13.1568C10.1851 13.2204 9.98681 13.2733 9.78299 13.3051C9.44697 13.3527 9.10543 13.3474 8.7694 13.2839C8.62618 13.4216 8.46643 13.5433 8.28464 13.6334C8.26261 13.6439 8.24608 13.6545 8.22405 13.6651C8.11939 13.7181 8.01472 13.771 7.93209 13.8504C7.91557 13.8663 7.89904 13.8875 7.88251 13.9087L7.86048 15.7723C7.86048 15.7988 7.85497 15.82 7.84946 15.8465L7.84395 15.857H7.83294C7.79988 15.8623 7.76132 15.8623 7.72827 15.8676C7.71726 15.8676 7.71175 15.8676 7.70073 15.8676C7.69522 15.8676 7.6842 15.8676 7.67869 15.8676C7.65115 15.8623 7.62361 15.8623 7.59056 15.8623ZM7.41428 15.82H7.4253C7.45284 15.8253 7.47487 15.8253 7.50242 15.8253C7.56301 15.8306 7.62361 15.8306 7.6842 15.8253C7.68971 15.8253 7.70073 15.8253 7.70624 15.8253C7.71725 15.8253 7.72276 15.8253 7.73378 15.8253C7.76132 15.8253 7.79438 15.82 7.82192 15.8147C7.82743 15.7988 7.82743 15.7829 7.82743 15.767L7.84946 13.8928L7.85497 13.8875C7.8715 13.8663 7.89353 13.8398 7.91006 13.8187C7.9982 13.7339 8.10286 13.681 8.21303 13.6228C8.23507 13.6122 8.25159 13.6016 8.27363 13.591C8.4499 13.501 8.61516 13.3792 8.75288 13.2416L8.75839 13.2363H8.7694C9.10543 13.2998 9.44146 13.3051 9.77748 13.2574C9.97579 13.2257 10.1741 13.178 10.3669 13.1092C10.5377 13.0563 10.7029 12.9662 10.8351 12.8498C10.9563 12.7386 11.0335 12.5903 11.05 12.4315C11.0555 12.3468 11.0335 12.2303 10.9729 12.1721C10.9398 12.1403 10.8957 12.1244 10.8462 12.1297C10.6809 12.1456 10.5707 12.2833 10.4771 12.4262L10.433 12.495L10.4165 12.4739C10.2622 12.2991 10.2788 12.0344 10.3173 11.8491C10.3283 11.7909 10.3504 11.7273 10.3669 11.6691C10.3724 11.6426 10.3834 11.6109 10.3889 11.5844L10.3944 11.5685H10.411C10.6534 11.5791 10.8957 11.542 11.1216 11.452C11.3144 11.3779 11.5733 11.2349 11.722 11.002L11.7275 10.9914H11.7441C12.003 11.039 12.3004 11.0867 12.5869 11.0443C12.8348 11.0179 13.0606 10.912 13.2369 10.7426C13.3085 10.6684 13.3911 10.5519 13.3526 10.4249C13.3305 10.3666 13.303 10.3084 13.2644 10.2608C13.2369 10.2131 13.1983 10.176 13.1488 10.1549C13.0937 10.1443 13.0331 10.1496 12.9835 10.176C12.9284 10.1972 12.8844 10.229 12.8513 10.2766C12.8293 10.3031 12.8182 10.3349 12.8017 10.3719C12.7907 10.3931 12.7797 10.4143 12.7687 10.4408C12.7356 10.4937 12.6971 10.5467 12.653 10.589C12.4492 10.8061 12.1352 10.8855 11.8432 10.8061L11.8212 10.8008L11.8267 10.7796C11.8653 10.679 11.9148 10.4937 11.8487 10.3825C11.8212 10.3349 11.7661 10.3084 11.6945 10.2978C11.6394 10.2872 11.5843 10.2978 11.5347 10.3296C11.4962 10.3613 11.4741 10.4143 11.4576 10.4672C11.4521 10.4831 11.4466 10.4937 11.4411 10.5043L11.4191 10.552C11.4025 10.5943 11.386 10.6367 11.364 10.679L11.3585 10.6896H11.3474C11.2979 10.6949 11.2483 10.6896 11.1987 10.679C11.1381 10.6684 11.072 10.6578 11.0059 10.642C10.9068 10.6208 10.8076 10.589 10.7195 10.5414L10.6809 10.5202L10.725 10.5043C10.8957 10.4408 11.0445 10.3084 11.1767 10.1019C11.2207 10.0331 11.2648 9.95897 11.2979 9.88484L11.3034 9.86896H11.3199C11.5017 9.89543 11.7055 9.83719 11.9314 9.69953C12.1627 9.56188 12.3059 9.39775 12.361 9.20715C12.3996 9.10655 12.3996 8.99537 12.372 8.89477C12.3445 8.81006 12.2674 8.74652 12.1737 8.74123C12.0525 8.73593 11.992 8.8683 11.9754 8.91065C11.9589 8.94771 11.9479 8.98478 11.9369 9.02713C11.9314 9.04831 11.9203 9.07478 11.9148 9.09596C11.8983 9.1542 11.8763 9.21244 11.8487 9.28127C11.8102 9.40304 11.7386 9.51952 11.6449 9.61482C11.5733 9.67836 11.4796 9.71542 11.3805 9.71542H11.3585L11.364 9.69424C11.375 9.63071 11.375 9.56717 11.3695 9.50364C11.3585 9.42422 11.3419 9.31304 11.2648 9.26009C11.1932 9.20715 11.094 9.23891 11.039 9.30245C10.9784 9.37657 10.9288 9.46658 10.9068 9.55658C10.8792 9.65718 10.8627 9.75777 10.8517 9.85837C10.8406 9.98014 10.8186 10.0966 10.7856 10.2131C10.758 10.2978 10.7139 10.4143 10.6148 10.4619L10.6038 10.4672L10.5928 10.4566C10.5267 10.3984 10.4716 10.3296 10.422 10.2555L10.411 10.2396C10.3559 10.1602 10.3008 10.0702 10.2016 10.0649C10.108 10.0596 10.0419 10.1496 10.0254 10.2343C10.0144 10.3349 10.0364 10.4408 10.0915 10.5308C10.1355 10.6261 10.2072 10.7055 10.3008 10.7584C10.3889 10.8061 10.4881 10.8379 10.5928 10.8537C10.8076 10.8855 11.0279 10.8855 11.2428 10.8537L11.2868 10.8484L11.2593 10.8961C11.2538 10.9014 11.2483 10.912 11.2483 10.9173C11.1657 11.0549 11.0445 11.1714 10.9012 11.2561C10.736 11.3514 10.5817 11.3885 10.4495 11.3567L10.433 11.3514V11.3355C10.4385 11.2614 10.411 11.1926 10.3559 11.1449C10.2788 11.0867 10.1631 11.0814 10.0805 11.1396C9.98681 11.2032 9.90969 11.2932 9.86562 11.3938C9.76647 11.6161 9.74994 11.8597 9.81604 12.0927C9.84909 12.225 9.90418 12.3521 9.97028 12.4739C10.0254 12.5745 10.108 12.6592 10.2072 12.7174L10.2292 12.7333L10.2072 12.7492C10.1796 12.7756 10.1466 12.7968 10.1135 12.818C9.95376 12.9186 9.77197 12.9874 9.58468 13.0139C9.42493 13.0404 9.19908 13.051 9.00627 12.9715L8.98424 12.961L8.99526 12.9398C9.02831 12.8921 9.05585 12.8445 9.0834 12.7915C9.11094 12.7333 9.17153 12.5797 9.06136 12.5109C8.9567 12.4421 8.80796 12.5215 8.7694 12.5427C8.69779 12.5903 8.63169 12.6486 8.57109 12.7121C8.54355 12.7386 8.52151 12.7651 8.49397 12.7862C8.37829 12.8974 8.22956 12.9715 8.06981 13.0033C8.00921 13.0139 7.94862 13.0139 7.88802 13.0086H7.8715L7.88802 11.6585L7.89904 11.6532C8.23507 11.4679 8.46092 11.1502 8.51601 10.7849V10.769C8.52151 10.7478 8.52151 10.732 8.52151 10.7161V10.7002L8.53804 10.6949L8.56007 10.6843C8.74186 10.6578 8.91814 10.5996 9.0834 10.5149C9.18255 10.4672 9.26518 10.4037 9.33128 10.319C9.38637 10.2396 9.42493 10.1496 9.44146 10.0543C9.46349 9.96426 9.469 9.87425 9.45798 9.78425C9.45798 9.71542 9.41391 9.65188 9.34781 9.62541C9.25967 9.59894 9.18255 9.66777 9.13297 9.74189C9.09441 9.80543 9.06136 9.87955 9.0228 9.94838C9.00627 9.98544 8.98424 10.0278 8.96771 10.0649C8.9567 10.086 8.94568 10.1072 8.93466 10.1284C8.85203 10.2978 8.74737 10.5096 8.54906 10.5731L8.52151 10.5837V10.5572C8.52151 10.499 8.51601 10.4461 8.5105 10.3878C8.50499 10.3508 8.49948 10.3137 8.48846 10.2608C8.48846 10.229 8.48295 10.2025 8.47194 10.1813C8.46092 10.1231 8.44439 10.0701 8.42787 10.0172C8.41685 9.98014 8.38931 9.94838 8.35626 9.9272C8.3177 9.91131 8.26812 9.9219 8.24058 9.95367C8.20752 9.99073 8.191 10.0384 8.18549 10.0913L8.11938 10.5414C8.11388 10.6049 8.09735 10.6737 8.07532 10.7373C8.05328 10.8008 8.00921 10.8537 7.94311 10.8802C7.93209 10.8855 7.92107 10.8855 7.91557 10.8908L7.88802 10.8961L7.92107 8.32826C7.92658 8.18001 8.00921 8.04765 8.14142 7.97882L8.87407 7.59762L8.87958 7.62938C8.87958 7.63468 8.87958 7.63997 8.88509 7.63997C9.01729 7.8041 9.16602 7.95235 9.33679 8.07942C9.45798 8.16942 9.64528 8.24884 9.8546 8.12177C10.0254 8.00529 10.1521 7.84646 10.2292 7.66115C10.2567 7.60291 10.2843 7.5182 10.2512 7.44937C10.2237 7.39113 10.1576 7.36466 10.0639 7.38054L9.99232 7.39113C9.77748 7.42819 9.55163 7.46525 9.3423 7.39113L9.29823 7.37525L11.733 6.12045L11.7441 6.13104C11.7661 6.15222 11.7881 6.1681 11.8047 6.18398C11.8763 6.23693 11.9589 6.27399 12.0415 6.29517C12.2288 6.33752 12.4271 6.34282 12.6144 6.30576C12.8017 6.27399 12.978 6.18928 13.1212 6.0728C13.1708 6.03044 13.2589 5.94573 13.2589 5.87161C13.2589 5.80278 13.1928 5.7816 13.1322 5.77631C13 5.76572 12.8678 5.75513 12.7356 5.76042C12.6695 5.76572 12.5979 5.76572 12.5263 5.75513L12.4657 5.74454L14.5645 4.66446C14.5975 4.64858 14.6251 4.6274 14.6471 4.60093C14.6361 4.56916 14.6251 4.53739 14.6086 4.51092C14.5975 4.48445 14.5865 4.46327 14.5755 4.4368V4.4315C14.5755 4.41032 14.57 4.39444 14.559 4.37326C14.548 4.35738 14.5369 4.34679 14.5259 4.33091L14.5204 4.32561C14.4984 4.29384 14.4819 4.25678 14.4543 4.22502C14.4433 4.20384 14.4268 4.18795 14.4158 4.17207C14.3772 4.17207 14.3331 4.18795 14.3001 4.20384L12.4271 5.17273L12.4657 5.1092C12.5373 4.99801 12.6199 4.89742 12.7191 4.80212C12.7907 4.72799 12.8568 4.64858 12.9119 4.56916C12.9725 4.49503 13.0055 4.40503 13.011 4.31502C13.011 4.2409 12.9505 4.17207 12.8678 4.17207C12.7797 4.16678 12.7081 4.21972 12.642 4.27267C12.4932 4.39973 12.3665 4.54798 12.2729 4.7174C12.1682 4.90801 12.1021 5.11979 12.0856 5.33686V5.34745L10.5377 6.14692L10.5487 6.10457C10.5652 6.03574 10.5873 5.96691 10.6203 5.89808C10.6478 5.83984 10.6754 5.7816 10.7084 5.72336C10.736 5.66512 10.769 5.60688 10.7966 5.54335C10.8572 5.43216 10.9012 5.31568 10.9398 5.1992C10.9673 5.09861 10.9894 4.98213 10.9288 4.92389C10.9012 4.89742 10.8737 4.88683 10.8351 4.89212C10.7195 4.89742 10.5652 5.02449 10.4716 5.13038C10.3283 5.29451 10.2292 5.4904 10.1906 5.70218C10.1686 5.82925 10.119 6.17869 10.1906 6.29517L10.2016 6.31105L8.81347 7.00993L8.80796 6.98345C8.79695 6.9358 8.79695 6.88815 8.80796 6.8405C8.81347 6.82462 8.81898 6.80873 8.82449 6.79285C8.83 6.77167 8.83551 6.7452 8.84652 6.72402C8.85754 6.69755 8.86856 6.67108 8.87958 6.6499C8.88508 6.63402 8.89059 6.62343 8.90161 6.60754C8.97322 6.44871 8.96771 6.33223 8.88509 6.25281C8.84652 6.21575 8.79695 6.19457 8.74737 6.19987C8.69228 6.21045 8.64821 6.24222 8.61516 6.28458C8.53804 6.39576 8.50499 6.52283 8.52151 6.65519C8.53253 6.81403 8.5766 6.9358 8.64821 7.01522C8.65372 7.02051 8.65923 7.02581 8.66474 7.0311C8.67025 7.0364 8.67576 7.04169 8.68127 7.04699L8.7033 7.06817L7.85497 7.50761C7.71726 7.57644 7.552 7.58173 7.40877 7.5129L6.52739 7.08934L6.53841 7.06817C6.61002 6.96757 6.64858 6.8458 6.64858 6.72932C6.66511 6.59695 6.63205 6.46459 6.55493 6.35341C6.52188 6.31105 6.47781 6.27928 6.42273 6.26869C6.37315 6.2634 6.32357 6.28458 6.28501 6.31635C6.18586 6.41694 6.21891 6.56519 6.26849 6.67108C6.27399 6.68696 6.2795 6.69755 6.29052 6.71343C6.30705 6.73991 6.31806 6.76638 6.32908 6.79285C6.3401 6.82991 6.35111 6.86697 6.36764 6.90404C6.37315 6.93051 6.37315 6.95698 6.37315 6.97816V7.00993L4.98497 6.34811L4.99599 6.33223C5.05659 6.20516 5.01252 5.86102 4.99048 5.75513C4.95192 5.54335 4.85277 5.34745 4.70954 5.18332C4.61039 5.07743 4.45615 4.95036 4.34597 4.94507C4.30741 4.94507 4.27987 4.95566 4.25233 4.97683C4.19173 5.03507 4.21377 5.16214 4.24131 5.25215C4.27987 5.36863 4.32945 5.48511 4.38453 5.59629C4.41208 5.64924 4.43411 5.70218 4.46165 5.75513C4.49471 5.81866 4.52776 5.88749 4.56081 5.95102C4.59386 6.01456 4.6159 6.08339 4.63242 6.14692L4.64344 6.18928L2.91924 5.36863V5.35804C2.89169 5.16744 2.8311 4.98742 2.73745 4.82329C2.64381 4.65387 2.52262 4.50562 2.36837 4.37856C2.30778 4.32561 2.23066 4.26737 2.14252 4.27796C2.05989 4.28325 1.99379 4.34679 1.99379 4.42621C2.00481 4.51621 2.03786 4.60622 2.09294 4.68034C2.15354 4.76505 2.21964 4.83918 2.29125 4.9133C2.35736 4.98213 2.41795 5.05096 2.47855 5.12508L2.53363 5.19391L0.847993 4.37856C0.770872 4.34149 0.677225 4.34149 0.594596 4.37326C0.583578 4.39444 0.572561 4.41032 0.567053 4.4315C0.545018 4.47915 0.522983 4.5268 0.506458 4.57445C0.489932 4.6221 0.473406 4.66446 0.462389 4.71211C0.489932 4.77564 0.534001 4.82329 0.594596 4.84977L2.6383 5.82396H2.53363C2.48956 5.81866 2.451 5.81866 2.41795 5.82396C2.29125 5.82396 2.16456 5.82925 2.03786 5.83984C1.92218 5.85572 1.91116 5.90337 1.91116 5.93514C1.91116 6.00926 1.99379 6.08339 2.04887 6.13633C2.1921 6.25281 2.36837 6.33223 2.55567 6.36929C2.74296 6.40635 2.94127 6.40106 3.12857 6.3587C3.2167 6.33752 3.29933 6.30046 3.36544 6.24752L3.41501 6.20516L3.42603 6.21046L5.91042 7.39642L5.86085 7.41231C5.65703 7.47584 5.44219 7.43878 5.23286 7.40701L5.16676 7.39642C5.07311 7.38054 5.00701 7.40172 4.97947 7.46525C4.95743 7.5182 4.96294 7.58703 5.0015 7.67703C5.07862 7.86234 5.21083 8.02647 5.3816 8.13766C5.58541 8.26472 5.77271 8.18531 5.8939 8.0953C6.06467 7.96823 6.21891 7.81999 6.34561 7.65586C6.35111 7.65056 6.35111 7.64527 6.35111 7.64527V7.6135L7.13885 7.98941C7.26555 8.04765 7.34818 8.17472 7.34818 8.31237L7.31512 10.9596H7.29309C7.27106 10.9596 7.24902 10.9543 7.2325 10.949C7.16639 10.9226 7.11681 10.8696 7.10029 10.8061C7.07825 10.7426 7.06724 10.6737 7.05622 10.6102L7.00664 10.2766C7.00113 10.2396 6.99562 10.1972 6.99012 10.1602C6.98461 10.1072 6.96808 10.0596 6.93503 10.0225C6.90749 9.99073 6.85791 9.98014 6.81935 9.99603C6.7863 10.0119 6.75875 10.0437 6.74774 10.0807C6.7257 10.1337 6.71468 10.1866 6.70367 10.2449C6.69265 10.2713 6.68714 10.2978 6.68714 10.3243C6.68163 10.3666 6.67062 10.409 6.66511 10.4566C6.6596 10.5149 6.65409 10.5678 6.65409 10.6261V10.6525L6.62655 10.642C6.42824 10.5784 6.32357 10.3666 6.24094 10.1972C6.22992 10.176 6.21891 10.1549 6.20789 10.1337C6.19136 10.1019 6.17484 10.0702 6.16382 10.0384C6.12526 9.95897 6.0867 9.88484 6.04814 9.81601C6.00407 9.74189 5.92144 9.67306 5.8333 9.69953C5.77271 9.72601 5.72864 9.78954 5.72864 9.85837C5.71762 9.94838 5.72313 10.0437 5.74517 10.1337C5.76169 10.229 5.80025 10.3243 5.85534 10.3984C5.92144 10.4778 6.00407 10.5414 6.10323 10.5943C6.26849 10.6843 6.44476 10.7426 6.63205 10.769L6.63756 10.7743L6.64307 10.7796H6.6596L6.66511 10.8008C6.66511 10.822 6.67062 10.8484 6.67062 10.8696C6.73121 11.2402 6.95706 11.5579 7.29309 11.7432L7.30411 11.7485L7.28758 13.1039H7.27106C7.22148 13.1092 7.16639 13.1039 7.11681 13.0986C6.95706 13.0668 6.80833 12.9927 6.68714 12.8815C6.6596 12.8551 6.63205 12.8286 6.61002 12.8021C6.54943 12.7439 6.48883 12.6803 6.41171 12.6327C6.32908 12.5797 6.20789 12.5427 6.11975 12.6009C6.00407 12.6698 6.06467 12.818 6.09772 12.8815C6.12526 12.9345 6.1528 12.9821 6.18586 13.0298L6.19687 13.051L6.17484 13.0615C6.0206 13.1251 5.82779 13.1357 5.59643 13.1039C5.40914 13.0774 5.22735 13.0086 5.0676 12.908C5.03455 12.8868 5.0015 12.8657 4.97396 12.8392L4.95192 12.8233L4.97396 12.8074C5.07311 12.7492 5.15574 12.6645 5.21083 12.5639C5.28244 12.4421 5.33202 12.315 5.36507 12.1827C5.43117 11.9497 5.41465 11.7062 5.31549 11.4838C5.27142 11.3779 5.19981 11.2932 5.10066 11.2296C5.01803 11.1767 4.90234 11.182 4.82522 11.2402C4.77565 11.2879 4.74259 11.3567 4.7481 11.4308V11.4467L4.73158 11.452C4.59937 11.4838 4.44513 11.4467 4.27987 11.3514C4.13665 11.2667 4.02096 11.1502 3.93283 11.0179C3.92732 11.0126 3.92181 11.002 3.92181 10.9967L3.89426 10.9437L3.93833 10.949C4.15317 10.9808 4.37352 10.9808 4.58835 10.949C4.69302 10.9332 4.79217 10.9014 4.88031 10.8537C4.96845 10.8008 5.04006 10.7214 5.08413 10.6261C5.13922 10.5361 5.16676 10.4302 5.15023 10.3243C5.13371 10.2449 5.07862 10.1496 4.97396 10.1549C4.86929 10.1602 4.8087 10.2555 4.75912 10.3349L4.75361 10.3402C4.70403 10.4143 4.64895 10.4831 4.58284 10.5414L4.57183 10.552L4.56081 10.5467C4.46165 10.499 4.41759 10.3825 4.39004 10.2978C4.35699 10.1813 4.33496 10.0596 4.32394 9.94308C4.31292 9.84249 4.2964 9.7366 4.26885 9.6413C4.24682 9.54599 4.20275 9.45599 4.13665 9.38186C4.08156 9.32362 3.9824 9.29186 3.91079 9.33951C3.84469 9.38716 3.81714 9.48775 3.80613 9.58306C3.79511 9.64659 3.80062 9.71012 3.81164 9.77366L3.81714 9.79484H3.79511C3.69595 9.79484 3.60231 9.75777 3.5307 9.69424C3.43705 9.59894 3.36544 9.48246 3.32688 9.36069C3.30484 9.30774 3.28281 9.24421 3.26077 9.18067C3.25526 9.15949 3.24425 9.13302 3.23874 9.10655C3.22772 9.06949 3.2167 9.03243 3.20018 8.99537C3.18365 8.95301 3.12306 8.82594 3.00187 8.82594C2.90822 8.83653 2.8311 8.89477 2.80907 8.98478C2.78152 9.08537 2.78703 9.19656 2.82008 9.29715C2.88068 9.49305 3.01839 9.65188 3.24976 9.79484C3.47561 9.93249 3.67943 9.98544 3.86121 9.96426H3.87774L3.88325 9.98014C3.92181 10.0543 3.96037 10.1284 4.00444 10.1972C4.14215 10.409 4.28538 10.5414 4.45615 10.5996L4.50021 10.6155L4.46165 10.6367C4.37352 10.6843 4.27436 10.7161 4.17521 10.7373C4.1091 10.7531 4.043 10.7637 3.9824 10.7743C3.93833 10.7849 3.88876 10.7902 3.83918 10.7849H3.82816L3.82265 10.7743C3.79511 10.7161 3.77308 10.6631 3.75104 10.5996C3.74553 10.589 3.74002 10.5784 3.74002 10.5625C3.71799 10.5096 3.69595 10.4514 3.65739 10.4196C3.61333 10.3878 3.55824 10.3772 3.50315 10.3878C3.43154 10.3984 3.37645 10.4249 3.34891 10.4725C3.2773 10.5837 3.33239 10.769 3.37095 10.8696L3.37645 10.8908L3.35442 10.8961C3.06246 10.9755 2.75398 10.8961 2.54465 10.679C2.50058 10.6314 2.46202 10.5837 2.42897 10.5308C2.41795 10.5096 2.40693 10.4884 2.39592 10.4619C2.37939 10.4302 2.36287 10.3984 2.34634 10.3666C2.31329 10.3243 2.26922 10.2872 2.21964 10.2713C2.16456 10.2396 2.10396 10.229 2.04337 10.2449C1.9993 10.266 1.95523 10.3031 1.92768 10.3508C1.88912 10.4037 1.85607 10.4566 1.83404 10.5202C1.80099 10.642 1.87811 10.7637 1.94972 10.8379C2.12049 11.0073 2.35185 11.1132 2.59974 11.1396C2.88068 11.1767 3.17263 11.1343 3.44256 11.0814L3.45908 11.0761L3.46459 11.0867C3.61333 11.3197 3.87223 11.4626 4.06503 11.542C4.29089 11.632 4.53878 11.6744 4.78666 11.6638H4.80319L4.82522 11.7485C4.84175 11.812 4.86378 11.8809 4.8748 11.9497C4.91336 12.1403 4.92989 12.3997 4.77565 12.5745L4.75912 12.5956L4.71505 12.5268C4.6214 12.3839 4.51674 12.2462 4.34597 12.2303C4.2964 12.225 4.25233 12.2409 4.21927 12.2727C4.15317 12.3309 4.13665 12.4474 4.14215 12.5321C4.15868 12.6909 4.2358 12.8392 4.35699 12.9504C4.4892 13.0668 4.64895 13.1568 4.81972 13.2098C5.01252 13.2733 5.21083 13.3263 5.40914 13.358C5.74516 13.4057 6.0867 13.4004 6.41722 13.3369H6.42824L6.43374 13.3422C6.57146 13.4798 6.73672 13.6016 6.91299 13.6916C6.92952 13.7022 6.95156 13.7128 6.97359 13.7234C7.07825 13.7763 7.18843 13.8345 7.27656 13.9193C7.28207 13.9193 7.28207 13.9246 7.28758 13.9298C7.34818 13.9934 7.39775 14.0728 7.4253 14.1575V14.1628V14.1681L7.40326 15.7988C7.40326 15.7776 7.40326 15.7988 7.41428 15.82Z" fill="#231F20"/>
</g>
<path d="M14.5982 4.45797C14.5707 4.48974 14.5376 4.51621 14.4991 4.53739L12.4554 5.591C12.5215 5.60159 12.5931 5.60159 12.6647 5.59629C12.7969 5.59629 12.9346 5.60159 13.0668 5.61218C13.1384 5.61747 13.2155 5.64924 13.21 5.72866C13.2045 5.80807 13.1274 5.89279 13.0668 5.94573C12.9181 6.0675 12.7418 6.14692 12.549 6.18398C12.3562 6.22105 12.1579 6.21575 11.9706 6.17339C11.8825 6.15222 11.7943 6.11515 11.7227 6.05692C11.7007 6.04103 11.6786 6.02515 11.6621 6.00397L9.28238 7.2323C9.50823 7.31171 9.75612 7.25877 9.99299 7.22171C10.0756 7.21112 10.1638 7.21641 10.2023 7.30112C10.2354 7.37525 10.2078 7.45996 10.1803 7.52879C10.1032 7.71939 9.97096 7.88352 9.79468 8C9.6129 8.11118 9.4201 8.07942 9.25484 7.95764C9.08407 7.83057 8.92983 7.68233 8.79762 7.5129C8.79211 7.50761 8.7866 7.49702 8.7866 7.49173L8.07599 7.85705C7.94929 7.92058 7.86666 8.04765 7.86666 8.18531L7.83361 10.7267C7.84463 10.7267 7.85014 10.7214 7.86115 10.7214C7.92175 10.6949 7.96582 10.6473 7.98234 10.589C8.00438 10.5255 8.0154 10.4619 8.0209 10.3984L8.05396 10.1655C8.06497 10.0913 8.07599 10.0225 8.08701 9.94838C8.09252 9.89543 8.10904 9.84249 8.1476 9.80013C8.18065 9.76307 8.24125 9.74719 8.29083 9.76836C8.32939 9.78954 8.36244 9.8266 8.37346 9.86896C8.39549 9.9219 8.40651 9.98014 8.41752 10.0384C8.42854 10.0649 8.43405 10.0913 8.43405 10.1231C8.43956 10.1655 8.45058 10.2078 8.45609 10.2502C8.46159 10.3084 8.4671 10.3613 8.4671 10.4196C8.68194 10.3508 8.78109 10.0966 8.87474 9.91661C8.92983 9.81072 8.97941 9.69954 9.04 9.59365C9.08958 9.51423 9.17772 9.43481 9.28238 9.46658C9.35399 9.49834 9.40357 9.56717 9.40357 9.6413C9.41459 9.7366 9.40908 9.8266 9.38704 9.91661C9.37052 10.0172 9.33196 10.1072 9.27136 10.1919C9.19975 10.2766 9.11712 10.3455 9.01797 10.3931C8.85271 10.4778 8.67643 10.5414 8.48914 10.5678L8.47812 10.5731C8.47812 10.5731 8.47261 10.5731 8.47261 10.5784C8.47261 10.5996 8.4671 10.6261 8.4671 10.6473C8.40651 11.0179 8.17515 11.3461 7.83912 11.5314L7.82259 12.8551C7.88319 12.8657 7.94378 12.8604 7.99887 12.8498C8.15862 12.818 8.30184 12.7439 8.41752 12.638C8.50566 12.5533 8.58829 12.458 8.69296 12.3891C8.78109 12.3362 8.9133 12.2938 9.00695 12.3574C9.11712 12.4262 9.08958 12.5639 9.04 12.6645C9.01246 12.7174 8.98491 12.7651 8.95186 12.8127C9.12814 12.8815 9.33747 12.8815 9.51925 12.8551C9.70654 12.8286 9.88282 12.7651 10.0426 12.6645C10.0756 12.6433 10.1032 12.6221 10.1362 12.5956C10.0316 12.5374 9.94892 12.4474 9.89384 12.3468C9.82223 12.225 9.76714 12.0979 9.73409 11.9603C9.66798 11.7273 9.68451 11.4732 9.78367 11.2508C9.82773 11.1449 9.90485 11.0496 10.004 10.9861C10.0977 10.9279 10.2188 10.9332 10.307 10.9967C10.3676 11.0496 10.3951 11.1291 10.3896 11.2032C10.5383 11.2349 10.6981 11.182 10.8248 11.1026C10.9625 11.0179 11.0782 10.9067 11.1608 10.7743C11.1663 10.7637 11.1718 10.7478 11.1829 10.7373C10.968 10.769 10.7422 10.769 10.5273 10.7373C10.4227 10.7214 10.318 10.6896 10.2244 10.642C10.1307 10.5837 10.0591 10.5043 10.0095 10.409C9.94892 10.3137 9.92689 10.2078 9.93791 10.0966C9.95443 10.0066 10.026 9.90073 10.1362 9.91132C10.2464 9.92191 10.318 10.0225 10.3731 10.1072C10.4172 10.1813 10.4722 10.2449 10.5383 10.3084C10.6265 10.266 10.6706 10.1602 10.6981 10.0702C10.7311 9.95367 10.7532 9.83719 10.7587 9.71542C10.7697 9.61482 10.7862 9.50893 10.8138 9.40834C10.8358 9.31304 10.8854 9.22303 10.9515 9.14361C11.0176 9.07478 11.1223 9.04302 11.2049 9.10126C11.2875 9.1595 11.304 9.27068 11.3206 9.36069C11.3316 9.42422 11.3316 9.49305 11.3151 9.55658C11.4087 9.55658 11.4968 9.52482 11.563 9.46128C11.6566 9.37128 11.7227 9.2548 11.7613 9.13302C11.7833 9.07478 11.8053 9.01125 11.8274 8.95301C11.8494 8.89477 11.8659 8.83124 11.888 8.773C11.921 8.68299 11.9981 8.58769 12.1083 8.59298C12.2075 8.60357 12.2956 8.6724 12.3231 8.76241C12.3507 8.8683 12.3507 8.97948 12.3121 9.08537C12.246 9.30774 12.0753 9.47187 11.8714 9.59365C11.6841 9.70483 11.4693 9.79484 11.2435 9.76307C11.2049 9.83719 11.1663 9.91132 11.1168 9.98544C11.0066 10.1602 10.8578 10.3243 10.654 10.3984C10.7422 10.4408 10.8358 10.4778 10.935 10.499C11.0011 10.5149 11.0617 10.5255 11.1278 10.5361C11.1718 10.5467 11.2214 10.552 11.271 10.5467C11.2985 10.4884 11.3206 10.4302 11.3426 10.3772C11.3646 10.3243 11.3867 10.2396 11.4473 10.1919C11.4968 10.1602 11.5574 10.1443 11.618 10.1549C11.8825 10.1866 11.8439 10.4566 11.7668 10.6631C12.0477 10.7426 12.3562 10.6578 12.5545 10.4514C12.5986 10.409 12.6371 10.3561 12.6647 10.3031C12.6922 10.2502 12.7143 10.1919 12.7473 10.1443C12.7804 10.0966 12.8299 10.0596 12.885 10.0331C12.9401 10.0013 13.0117 9.99073 13.0778 10.0066C13.1329 10.0331 13.177 10.0702 13.2045 10.1178C13.2431 10.1707 13.2761 10.229 13.2982 10.2872C13.3312 10.4143 13.2651 10.5361 13.177 10.6261C13.0007 10.7955 12.7638 10.9067 12.5159 10.9332C12.235 10.9702 11.9486 10.9279 11.6676 10.8749C11.5299 11.092 11.293 11.2402 11.0562 11.3355C10.8303 11.4255 10.5824 11.4679 10.3345 11.452C10.3125 11.542 10.285 11.6267 10.2629 11.7167C10.2188 11.9179 10.2133 12.1668 10.3566 12.3256L10.3841 12.278C10.4722 12.1456 10.5879 11.9868 10.7697 11.9709C10.9515 11.955 11.0121 12.1562 11.0011 12.2938C10.9845 12.458 10.9074 12.6115 10.7807 12.7227C10.643 12.8445 10.4833 12.9345 10.307 12.9874C10.1142 13.051 9.91587 13.1039 9.71756 13.1357C9.38153 13.1833 9.03449 13.178 8.69846 13.1145C8.55524 13.2574 8.39549 13.3739 8.21371 13.4692C8.09252 13.5328 7.96031 13.591 7.85564 13.6916C7.83361 13.7128 7.81708 13.7339 7.80056 13.7551L7.77852 15.6241C7.77852 15.6453 7.77302 15.6717 7.76751 15.6929C7.73445 15.6982 7.69589 15.6982 7.66284 15.7035C7.64632 15.7035 7.62979 15.7035 7.61326 15.7088C7.55267 15.7141 7.49207 15.7141 7.43148 15.7088C7.40394 15.7088 7.3819 15.7088 7.35436 15.7035H7.32682C7.31029 15.6823 7.30478 15.6506 7.30478 15.6241L7.32682 13.9934C7.29927 13.9087 7.2552 13.8345 7.1891 13.771L7.18359 13.7657C7.08444 13.6651 6.95223 13.6069 6.82553 13.5433C6.64375 13.448 6.484 13.3316 6.34077 13.1886C6.00474 13.2522 5.66321 13.2627 5.32167 13.2098C5.11786 13.178 4.92505 13.1304 4.73225 13.0615C4.55597 13.0086 4.39622 12.9186 4.25851 12.7968C4.13181 12.6803 4.05469 12.5321 4.03816 12.368C4.02715 12.2303 4.08223 12.0291 4.26953 12.045C4.45682 12.0609 4.56699 12.2197 4.65513 12.3521L4.68267 12.3997C4.8259 12.2356 4.82039 11.9921 4.77632 11.7909C4.75429 11.7009 4.73225 11.6109 4.70471 11.5261C4.45682 11.542 4.21444 11.4997 3.98308 11.4097C3.74621 11.3144 3.50934 11.1661 3.37162 10.949C3.09068 11.002 2.80423 11.0443 2.52329 11.0073C2.2754 10.9808 2.03853 10.8749 1.86225 10.7002C1.77412 10.6102 1.7025 10.4884 1.74106 10.3613C1.7631 10.2978 1.79615 10.2396 1.83471 10.1919C1.86225 10.1443 1.90632 10.1019 1.96141 10.0807C2.02751 10.0649 2.09362 10.0754 2.1487 10.1072C2.20379 10.1284 2.25337 10.1655 2.28642 10.2184C2.31947 10.2713 2.34151 10.3243 2.36905 10.3772C2.39659 10.4302 2.43515 10.4778 2.47922 10.5255C2.67753 10.732 2.98602 10.8167 3.26696 10.7373C3.18983 10.5308 3.15678 10.2608 3.41569 10.229C3.47628 10.2184 3.53688 10.229 3.58646 10.266C3.64154 10.3084 3.66358 10.3878 3.69112 10.4514C3.71866 10.5149 3.7407 10.5678 3.76273 10.6208C3.81231 10.6208 3.85638 10.6208 3.90596 10.6102C3.97206 10.5996 4.03266 10.589 4.09876 10.5731C4.19791 10.552 4.29156 10.5202 4.3797 10.4725C4.17588 10.3984 4.03265 10.2343 3.91697 10.0596C3.8729 9.99073 3.82884 9.91661 3.79028 9.83719C3.56993 9.86896 3.34958 9.77895 3.16229 9.66777C2.95847 9.546 2.7877 9.38716 2.7216 9.1595C2.68304 9.05361 2.67753 8.94242 2.71058 8.83653C2.73813 8.74123 2.82626 8.6777 2.92542 8.66711C3.03559 8.66181 3.11271 8.75711 3.14577 8.84712C3.1678 8.90536 3.18433 8.96889 3.20636 9.02713C3.22839 9.08537 3.25043 9.14891 3.27246 9.20715C3.31102 9.32892 3.38264 9.4401 3.47077 9.53541C3.53688 9.59894 3.62502 9.63071 3.71866 9.63071C3.70765 9.56717 3.70214 9.49834 3.71315 9.43481C3.72417 9.3448 3.75171 9.23362 3.82884 9.17538C3.90596 9.11714 4.02164 9.1542 4.08223 9.21774C4.14834 9.29715 4.1924 9.38716 4.21995 9.48246C4.24749 9.58306 4.26402 9.68365 4.27503 9.78954C4.28605 9.90602 4.30809 10.0278 4.33563 10.1443C4.36317 10.2343 4.40724 10.3402 4.49538 10.3825C4.55597 10.3243 4.61657 10.2555 4.66064 10.1813C4.71572 10.0966 4.78183 9.99073 4.89751 9.98544C5.00768 9.98014 5.07929 10.0807 5.09582 10.1707C5.10684 10.2766 5.0848 10.3878 5.02421 10.4831C4.97463 10.5784 4.90302 10.6631 4.80937 10.7161C4.71573 10.769 4.61657 10.8008 4.51191 10.8114C4.29707 10.8431 4.07122 10.8431 3.85638 10.8114C3.86189 10.822 3.8674 10.8379 3.87841 10.8484C3.96104 10.9808 4.07672 11.0973 4.21444 11.1767C4.34114 11.2508 4.50089 11.3091 4.64962 11.2773C4.64411 11.1979 4.67166 11.1238 4.73225 11.0708C4.82039 11.0073 4.94158 11.002 5.03523 11.0602C5.13438 11.1238 5.2115 11.2191 5.25557 11.3249C5.35473 11.5473 5.37125 11.8015 5.30515 12.0344C5.2721 12.1668 5.21701 12.2991 5.1454 12.4209C5.09031 12.5215 5.00768 12.6115 4.90302 12.6698C4.93056 12.6962 4.96361 12.7174 4.99667 12.7386C5.15642 12.8392 5.33269 12.9027 5.51998 12.9292C5.70177 12.9557 5.9111 12.961 6.08737 12.8868C6.05432 12.8392 6.02678 12.7862 5.99924 12.7386C5.94966 12.6433 5.91661 12.5056 6.03229 12.4315C6.13144 12.3733 6.25814 12.4103 6.34628 12.4633C6.45645 12.5268 6.53357 12.6274 6.62171 12.7121C6.73739 12.8233 6.88062 12.8921 7.04037 12.9239C7.08994 12.9345 7.13952 12.9345 7.1891 12.9292L7.20563 11.6056C6.85858 11.4203 6.6162 11.092 6.55561 10.7161C6.5501 10.6949 6.5501 10.6684 6.5501 10.6473C6.54459 10.6473 6.54459 10.6473 6.54459 10.642L6.53357 10.6367C6.34628 10.6102 6.17 10.552 6.00474 10.4619C5.90559 10.4143 5.81745 10.3455 5.75135 10.2608C5.69075 10.1813 5.65219 10.086 5.63567 9.98544C5.61363 9.89543 5.60812 9.80013 5.61914 9.71012C5.61914 9.636 5.66872 9.56717 5.74033 9.53541C5.84499 9.50364 5.93313 9.58306 5.9772 9.66247C6.0378 9.76307 6.08737 9.87425 6.14246 9.98544C6.2306 10.1655 6.33526 10.4196 6.5501 10.4884C6.5501 10.4302 6.55561 10.3772 6.56112 10.319C6.56662 10.2766 6.57213 10.2343 6.58315 10.1919C6.58315 10.1655 6.58866 10.1337 6.59968 10.1072C6.61069 10.049 6.62722 9.99603 6.64375 9.94308C6.65476 9.90073 6.68781 9.86367 6.72638 9.84249C6.77595 9.82131 6.83104 9.83719 6.8696 9.87425C6.90816 9.91661 6.92469 9.96956 6.93019 10.0225C6.94121 10.0966 6.95223 10.1655 6.96325 10.2396L6.9963 10.4725C7.00181 10.5361 7.01833 10.6049 7.03486 10.6631C7.05138 10.7214 7.09545 10.769 7.15605 10.7955C7.17257 10.8008 7.1891 10.8061 7.21113 10.8061L7.24419 8.18001C7.24419 8.05294 7.16707 7.93117 7.05138 7.87823L6.29119 7.5129C6.29119 7.52349 6.28568 7.52879 6.28018 7.53408C6.14797 7.70351 5.99373 7.85175 5.82296 7.97882C5.6577 8.10059 5.4649 8.13236 5.28311 8.02118C5.10684 7.9047 4.97463 7.74057 4.89751 7.54997C4.86446 7.48114 4.84242 7.39643 4.87548 7.3223C4.91404 7.24288 5.00217 7.2323 5.0848 7.24288C5.31066 7.27995 5.54753 7.33289 5.77338 7.26406L3.33306 6.09927L3.2945 6.13104C3.22289 6.18398 3.13475 6.22634 3.04661 6.24752C2.85932 6.29517 2.66101 6.29517 2.4682 6.25811C2.2754 6.22104 2.09913 6.14163 1.95039 6.01985C1.8898 5.96691 1.80717 5.88749 1.80717 5.80278C1.80717 5.71807 1.88429 5.69689 1.95039 5.6863C2.0826 5.67571 2.22032 5.66512 2.35252 5.67042C2.38007 5.67042 2.41863 5.67042 2.45168 5.67042L0.507131 4.73858C0.441028 4.70682 0.385942 4.65387 0.358398 4.58504C0.358398 4.58504 0.358398 4.57975 0.358398 4.57445C0.369416 4.5268 0.385942 4.47915 0.402467 4.4315C0.418993 4.38385 0.441028 4.33091 0.463062 4.28326C0.47408 4.26208 0.485097 4.2409 0.496114 4.21972C0.584252 4.17736 0.683408 4.17736 0.771546 4.21972L2.37456 4.98742C2.31396 4.9133 2.25337 4.84447 2.18726 4.77564C2.11565 4.70152 2.04955 4.6221 1.98895 4.54269C1.92836 4.46327 1.89531 4.37326 1.88429 4.27796C1.88429 4.18795 1.9559 4.11913 2.04404 4.11383C2.13769 4.10324 2.21481 4.16148 2.28642 4.21443C2.44066 4.34149 2.56185 4.49504 2.66101 4.66446C2.75465 4.83388 2.81525 5.01919 2.84279 5.20979L4.51741 6.00926C4.50089 5.94044 4.47885 5.8769 4.4458 5.81337C4.39072 5.69689 4.33012 5.58041 4.26953 5.46393C4.20893 5.35275 4.15935 5.23627 4.12079 5.11449C4.09876 5.02978 4.06571 4.89212 4.13732 4.818C4.28054 4.68034 4.53945 4.92919 4.62759 5.02449C4.77632 5.19391 4.87547 5.3951 4.91404 5.61218C4.92505 5.6863 4.98565 6.05692 4.91954 6.19987L6.26916 6.8458C6.26916 6.82462 6.26916 6.79815 6.26365 6.77697C6.25263 6.73991 6.23611 6.70285 6.22509 6.66578C6.21407 6.62872 6.18653 6.58637 6.17 6.5493C6.11492 6.42753 6.08187 6.27928 6.18653 6.17339C6.22509 6.13104 6.28568 6.10986 6.34077 6.11515C6.40137 6.12574 6.45645 6.16281 6.4895 6.21046C6.56663 6.32164 6.60519 6.4593 6.58866 6.59695C6.58315 6.72402 6.54459 6.8458 6.47298 6.94639L7.33232 7.35936C7.47004 7.4229 7.62428 7.4229 7.762 7.35407L8.58278 6.93051C8.57728 6.92521 8.57177 6.91992 8.56626 6.91463C8.56075 6.90933 8.55524 6.90404 8.54973 6.89874V6.89345C8.46159 6.79285 8.42854 6.6499 8.41752 6.52283C8.401 6.38517 8.43405 6.25281 8.51668 6.13633C8.54973 6.08868 8.60482 6.05162 8.66541 6.04103C8.7205 6.03574 8.78109 6.05162 8.81966 6.09398C8.92432 6.19987 8.89127 6.34811 8.83618 6.46989C8.81965 6.51224 8.79762 6.5493 8.78109 6.58637C8.76457 6.62343 8.75906 6.66049 8.74253 6.69755C8.73152 6.7452 8.73152 6.78756 8.74253 6.83521L10.0866 6.14163C10.004 6.00926 10.0701 5.61218 10.0811 5.53805C10.1197 5.32098 10.2188 5.11979 10.3676 4.95036C10.4557 4.85506 10.7146 4.61151 10.8523 4.74388C10.9295 4.81271 10.8964 4.95036 10.8689 5.04037C10.8303 5.16214 10.7807 5.27862 10.7201 5.38981C10.665 5.50629 10.5989 5.62277 10.5439 5.73924C10.5108 5.80278 10.4888 5.87161 10.4722 5.94044L11.9706 5.16744C11.9926 4.95036 12.0532 4.73858 12.1634 4.54269C12.257 4.36797 12.3837 4.21443 12.5325 4.08736C12.5986 4.02912 12.6757 3.97617 12.7749 3.98147C12.8685 3.98676 12.9401 4.06089 12.9401 4.1456C12.9291 4.2409 12.896 4.33091 12.8354 4.41032C12.7749 4.49504 12.7087 4.57445 12.6371 4.64858C12.5435 4.73858 12.4609 4.84447 12.3892 4.95036L14.1961 4.01853C14.2401 3.99735 14.2842 3.98676 14.3338 3.98147C14.3503 4.00265 14.3668 4.02382 14.3779 4.045C14.3999 4.07677 14.4219 4.11383 14.444 4.15089C14.4605 4.16148 14.4715 4.17737 14.4825 4.19854C14.4935 4.21972 14.4991 4.2409 14.5046 4.26208C14.5156 4.28855 14.5266 4.30973 14.5376 4.3362C14.5707 4.38385 14.5817 4.42091 14.5982 4.45797Z" fill="white"/>
<path d="M7.51403 15.73C7.48098 15.73 7.45344 15.73 7.42039 15.73C7.39835 15.73 7.37081 15.73 7.34327 15.7247H7.31572L7.31021 15.7141C7.29369 15.6876 7.28267 15.6559 7.28267 15.6241L7.30471 13.9987C7.27716 13.9193 7.23309 13.8451 7.17801 13.7869L7.1725 13.7816C7.08436 13.6916 6.96868 13.6386 6.853 13.5804L6.81995 13.5645C6.64367 13.4692 6.47841 13.3527 6.33519 13.2151C5.99916 13.2786 5.65763 13.2839 5.3216 13.2363C5.11778 13.2045 4.91947 13.1516 4.72667 13.088C4.55039 13.0351 4.38513 12.9398 4.24742 12.818C4.12072 12.7015 4.03809 12.5427 4.02156 12.3733C4.01605 12.2833 4.03258 12.1562 4.1097 12.0821C4.15377 12.0397 4.20886 12.0238 4.26945 12.0291C4.45674 12.045 4.57793 12.1985 4.67158 12.3468L4.68811 12.368C4.82031 12.1932 4.79277 11.9391 4.75972 11.7962C4.74319 11.7326 4.72667 11.6638 4.71014 11.6003L4.69361 11.5473C4.45124 11.5579 4.20335 11.5155 3.983 11.4255C3.7902 11.3461 3.52579 11.2032 3.37154 10.9702C3.10162 11.0232 2.81517 11.0602 2.52872 11.0232C2.27533 10.9967 2.03846 10.8855 1.85667 10.7108C1.77404 10.6261 1.6859 10.499 1.72997 10.3561C1.75201 10.2925 1.78506 10.2343 1.82913 10.176C1.85667 10.1231 1.90625 10.086 1.96133 10.0596C2.03295 10.0437 2.11007 10.0543 2.17066 10.086C2.23126 10.1072 2.28083 10.1496 2.31389 10.2025C2.33592 10.2343 2.35245 10.266 2.36897 10.2978C2.37999 10.319 2.39101 10.3402 2.40202 10.3613C2.42957 10.4143 2.46813 10.4619 2.50669 10.5043C2.69949 10.7055 2.98043 10.7849 3.25035 10.7161C3.20628 10.5837 3.16772 10.4143 3.23934 10.3031C3.2779 10.2449 3.33849 10.2131 3.42112 10.2025C3.48722 10.1919 3.55333 10.2025 3.60841 10.2396C3.65799 10.2819 3.68554 10.3402 3.70206 10.3984C3.70757 10.409 3.71308 10.4196 3.71308 10.4302C3.73511 10.4884 3.75715 10.5361 3.77918 10.589C3.81774 10.589 3.86181 10.5837 3.90037 10.5784C3.96097 10.5678 4.02707 10.5572 4.09317 10.5414C4.1758 10.5255 4.25292 10.499 4.33005 10.4619C4.1703 10.3931 4.03258 10.2608 3.90037 10.0596C3.8563 9.99073 3.81774 9.9219 3.77918 9.85308C3.59189 9.87425 3.38256 9.81601 3.15671 9.67836C2.91433 9.5354 2.7711 9.36598 2.705 9.15949C2.66644 9.0536 2.66093 8.93712 2.69398 8.82594C2.72703 8.72534 2.81517 8.65122 2.92534 8.64063C3.03001 8.63534 3.11815 8.70946 3.16772 8.83123C3.18425 8.8683 3.19527 8.90536 3.20628 8.94242C3.21179 8.9636 3.22281 8.99007 3.22832 9.01125C3.25035 9.08008 3.27239 9.13832 3.29442 9.19126C3.33298 9.31304 3.39909 9.41893 3.49273 9.50893C3.54782 9.56188 3.62494 9.59364 3.70206 9.59894C3.69104 9.5407 3.69104 9.47716 3.70206 9.41892C3.71859 9.31303 3.74613 9.20715 3.82325 9.14891C3.91139 9.08537 4.03809 9.12243 4.10419 9.19656C4.1703 9.27597 4.21987 9.37127 4.24742 9.47187C4.27496 9.57247 4.29148 9.67836 4.3025 9.77895C4.31352 9.89543 4.33555 10.0119 4.3631 10.1284C4.38513 10.2025 4.42369 10.3031 4.50081 10.3455C4.5559 10.2925 4.61099 10.229 4.64955 10.1602L4.65505 10.1549C4.71014 10.0701 4.78175 9.96426 4.90294 9.95367C5.01862 9.94838 5.10125 10.049 5.12329 10.1549C5.13431 10.266 5.11227 10.3825 5.05168 10.4778C5.0021 10.5784 4.92498 10.6578 4.83133 10.7214C4.73218 10.7743 4.63302 10.8061 4.52285 10.822C4.31903 10.8537 4.1097 10.8537 3.90037 10.8273C3.983 10.9596 4.09317 11.0708 4.23089 11.1502C4.33555 11.2138 4.48429 11.2773 4.63302 11.2508C4.63302 11.1714 4.66607 11.0973 4.72116 11.0443C4.82031 10.9755 4.94701 10.9702 5.04617 11.0337C5.15083 11.1026 5.22795 11.1979 5.27202 11.3091C5.37118 11.5367 5.3877 11.7962 5.3216 12.0344C5.28855 12.1721 5.23346 12.2991 5.16185 12.4262C5.10676 12.5215 5.02964 12.6062 4.93599 12.6698C4.95803 12.6856 4.98006 12.7015 5.0021 12.7174C5.15634 12.8127 5.33262 12.8815 5.5144 12.908C5.72373 12.9398 5.90551 12.9292 6.04874 12.8762C6.02119 12.8339 5.99365 12.7915 5.97162 12.7439C5.93857 12.675 5.86695 12.5003 6.01018 12.4156C6.11484 12.3521 6.25256 12.3891 6.3462 12.4474C6.42883 12.495 6.49494 12.5639 6.55553 12.6274C6.57757 12.6486 6.5996 12.675 6.62164 12.6962C6.73181 12.8021 6.87503 12.8762 7.02927 12.9027C7.07334 12.908 7.1119 12.9133 7.15597 12.9133L7.1725 11.6214C6.81995 11.4308 6.58858 11.1026 6.52248 10.7214C6.51697 10.7002 6.51697 10.679 6.51697 10.6631L6.50595 10.6578C6.31866 10.6314 6.14239 10.5731 5.97713 10.4831C5.87797 10.4355 5.78983 10.3666 5.71822 10.2766C5.65763 10.1919 5.61356 10.0966 5.59703 9.99073C5.575 9.90072 5.56949 9.80542 5.5805 9.71012C5.5805 9.6307 5.63559 9.55129 5.71271 9.51952C5.82839 9.48246 5.92755 9.56717 5.97713 9.65188C6.02119 9.72601 6.05976 9.80542 6.09832 9.87955C6.11484 9.91131 6.13137 9.94308 6.14239 9.97485C6.1534 9.99603 6.16442 10.0172 6.17544 10.0437C6.25256 10.1972 6.3462 10.3931 6.51146 10.4619C6.51146 10.4143 6.51697 10.3666 6.52248 10.319C6.52799 10.2713 6.53901 10.229 6.54452 10.1866C6.54452 10.1602 6.55002 10.1284 6.56104 10.0966C6.57206 10.0437 6.58858 9.98544 6.60511 9.93249C6.62164 9.88484 6.65469 9.84778 6.69876 9.82131C6.75935 9.80013 6.82545 9.81072 6.86402 9.85837C6.90258 9.90602 6.92461 9.95896 6.93012 10.0172L6.99622 10.4672C7.00173 10.5308 7.01826 10.5943 7.03478 10.6578C7.05131 10.7108 7.08987 10.7531 7.14496 10.7796C7.15046 10.7796 7.16148 10.7849 7.16699 10.7849L7.20004 8.18001C7.20004 8.05824 7.12843 7.94705 7.01826 7.89411L6.27459 7.53938C6.27459 7.54467 6.26908 7.54467 6.26908 7.54996C6.13688 7.71939 5.98263 7.86763 5.80636 7.9947C5.61906 8.13236 5.42075 8.14824 5.24448 8.03706C5.0682 7.91529 4.93049 7.75116 4.85337 7.55526C4.8093 7.45466 4.80379 7.37525 4.83133 7.31171C4.86989 7.23229 4.94701 7.20582 5.06269 7.2217L5.1288 7.23229C5.31609 7.26406 5.50889 7.29583 5.68517 7.25347L3.30544 6.11515L3.2779 6.14163C3.20078 6.19987 3.11264 6.23693 3.0245 6.2581C2.8317 6.30576 2.62788 6.30576 2.43508 6.27399C2.24227 6.23693 2.06049 6.15751 1.91176 6.03044C1.84014 5.96691 1.76302 5.88749 1.75751 5.80278C1.75751 5.72865 1.80709 5.681 1.91727 5.66512C2.04947 5.65453 2.18719 5.64394 2.3249 5.64924H2.36897L0.496039 4.75446C0.424426 4.7227 0.36934 4.66446 0.341797 4.59033V4.58504V4.57445C0.352814 4.5268 0.36934 4.47915 0.391375 4.4315C0.4079 4.38385 0.429935 4.3309 0.451969 4.28325C0.462987 4.26208 0.474004 4.2409 0.485021 4.21972L0.49053 4.21443L0.496039 4.20913C0.589685 4.16148 0.699858 4.16148 0.787996 4.20913L2.31389 4.93977C2.27533 4.89212 2.23126 4.84447 2.18719 4.79682C2.11558 4.7227 2.04947 4.64328 1.98888 4.55857C1.92828 4.47915 1.88972 4.38385 1.8787 4.28325C1.8787 4.18266 1.95583 4.10324 2.06049 4.09795C2.15964 4.08736 2.24778 4.1456 2.31389 4.20384C2.46813 4.3309 2.59483 4.48974 2.68847 4.65916C2.78212 4.82859 2.84272 5.0086 2.87026 5.1992L4.4953 5.9722C4.47878 5.91926 4.46225 5.87161 4.44022 5.82396C4.40717 5.76042 4.37411 5.69159 4.34106 5.62806C4.31352 5.57511 4.28598 5.52217 4.26394 5.46922C4.20335 5.35804 4.15377 5.23626 4.11521 5.11979C4.08767 5.0139 4.06012 4.88153 4.13724 4.80741C4.1703 4.77564 4.21436 4.75976 4.25843 4.75976C4.42369 4.76505 4.61649 4.97154 4.65505 5.0139C4.80379 5.18332 4.90294 5.38981 4.94701 5.60688C4.94701 5.61217 5.02413 6.01456 4.95803 6.18928L6.25807 6.81403C6.25807 6.80344 6.25807 6.79285 6.25256 6.78226C6.24154 6.7452 6.22501 6.70814 6.214 6.67108C6.20849 6.6499 6.19196 6.62343 6.18094 6.59695C6.17544 6.58107 6.16442 6.57048 6.15891 6.5546C6.08179 6.38517 6.0873 6.24752 6.18094 6.15751C6.22501 6.11515 6.29112 6.08868 6.35171 6.09397C6.41782 6.10456 6.47841 6.14163 6.51697 6.19457C6.5996 6.31105 6.63265 6.454 6.61613 6.59166C6.61062 6.71343 6.57757 6.82991 6.51146 6.93051L7.35428 7.33289C7.48098 7.39642 7.63522 7.39113 7.76192 7.32759L8.56067 6.91462C8.55516 6.90933 8.55516 6.90933 8.54966 6.90403C8.47254 6.81403 8.42296 6.68696 8.41194 6.51754C8.39541 6.37988 8.42847 6.23693 8.5111 6.12045C8.54966 6.0675 8.60474 6.03044 8.67085 6.01985C8.73695 6.01456 8.80305 6.03574 8.84712 6.07809C8.94077 6.1681 8.94628 6.30046 8.86916 6.47518C8.86365 6.49106 8.85814 6.50695 8.84712 6.51754C8.83611 6.54401 8.82509 6.56519 8.81407 6.59166C8.80305 6.61284 8.79755 6.63401 8.79204 6.65519C8.78653 6.67108 8.78102 6.68696 8.77551 6.70284C8.77 6.73461 8.77 6.76638 8.77 6.80344L10.07 6.13104C9.99292 5.96691 10.07 5.53276 10.0755 5.52746C10.1141 5.31039 10.2133 5.1039 10.3675 4.93448C10.4061 4.89212 10.5989 4.68564 10.7641 4.68034C10.8137 4.68034 10.8523 4.69623 10.8853 4.72799C10.9735 4.8127 10.9294 4.96624 10.9073 5.04037C10.8688 5.16214 10.8192 5.27862 10.7586 5.3951C10.7311 5.45334 10.698 5.51687 10.6705 5.57511C10.6429 5.63335 10.6099 5.69159 10.5823 5.74983C10.5603 5.79748 10.5383 5.85043 10.5217 5.90337L11.9705 5.15685C11.9926 4.93977 12.0587 4.72799 12.1633 4.5321C12.257 4.35738 12.3837 4.20384 12.5379 4.07147C12.6095 4.01323 12.6921 3.95499 12.7913 3.96029C12.896 3.96558 12.9731 4.045 12.9731 4.1456C12.9621 4.24619 12.9235 4.34149 12.8629 4.42091C12.8023 4.50562 12.7362 4.58504 12.6646 4.65916C12.5875 4.73329 12.5214 4.8127 12.4608 4.89742L14.196 4.00264C14.2401 3.98147 14.2896 3.96558 14.3447 3.96558H14.3558L14.3613 3.97617C14.3778 3.99735 14.3943 4.01853 14.4053 4.03971C14.4329 4.07677 14.4494 4.10854 14.4714 4.1456C14.488 4.16148 14.5045 4.17736 14.5155 4.19325C14.5265 4.21442 14.5375 4.2409 14.5375 4.26208C14.5486 4.28325 14.5596 4.30973 14.5706 4.3309C14.5871 4.36267 14.6036 4.40503 14.6147 4.43679L14.6202 4.44738L14.6147 4.45797C14.5871 4.49503 14.5541 4.52151 14.51 4.54268L12.5269 5.56452C12.571 5.56982 12.6205 5.56982 12.6646 5.56452C12.8023 5.56452 12.9345 5.56982 13.0722 5.58041C13.1769 5.591 13.2375 5.63865 13.2375 5.71807C13.2375 5.80278 13.1549 5.88749 13.0833 5.94573C12.9345 6.0675 12.7527 6.15221 12.5544 6.18398C12.3616 6.22104 12.1578 6.21575 11.965 6.17339C11.8714 6.15221 11.7832 6.10986 11.7116 6.05691C11.6951 6.04632 11.6786 6.03044 11.6565 6.01456L9.33188 7.21112C9.51917 7.26406 9.71749 7.227 9.9158 7.19523L9.98741 7.18464C10.1031 7.16876 10.1802 7.19523 10.2188 7.27465C10.2573 7.35936 10.2243 7.45466 10.1967 7.5182C10.1196 7.71409 9.9819 7.87822 9.80562 8C9.62935 8.11118 9.43104 8.0953 9.24374 7.95764C9.06747 7.83057 8.91323 7.67703 8.78102 7.50761L8.77551 7.50231L8.08693 7.85705C7.96574 7.92058 7.88862 8.03706 7.88862 8.16942L7.85557 10.6843C7.90515 10.6631 7.94371 10.6208 7.96023 10.5678C7.98227 10.5043 7.99328 10.4408 7.99879 10.3772L8.0649 9.9272C8.07041 9.86896 8.09244 9.81601 8.131 9.76836C8.17507 9.72601 8.24117 9.71012 8.29626 9.7313C8.34584 9.75777 8.37338 9.79483 8.38991 9.84249C8.41194 9.89543 8.42847 9.95367 8.43398 10.0119C8.44499 10.0384 8.4505 10.0701 8.4505 10.0966C8.45601 10.1284 8.46703 10.176 8.47254 10.2237C8.47804 10.2713 8.48355 10.319 8.48355 10.3666C8.6433 10.2978 8.74246 10.1072 8.81958 9.95367C8.8306 9.93249 8.84161 9.90602 8.85263 9.88484C8.87467 9.84778 8.89119 9.81072 8.90772 9.77366C8.94077 9.70483 8.97933 9.63071 9.01789 9.56717C9.06747 9.48246 9.16662 9.39775 9.2823 9.43481C9.36493 9.47187 9.41451 9.54599 9.42002 9.6307C9.43104 9.72601 9.42553 9.82131 9.40349 9.91131C9.38697 10.0119 9.3429 10.1072 9.2823 10.1919C9.21069 10.2766 9.12255 10.3455 9.01789 10.3984C8.85263 10.4884 8.67636 10.5467 8.48906 10.5731L8.48355 10.5784C8.48355 10.5943 8.47804 10.6102 8.47804 10.6261V10.642C8.41745 11.0179 8.1916 11.3408 7.85006 11.5367L7.83353 12.8339C7.88311 12.8392 7.93269 12.8392 7.98778 12.8286C8.14202 12.8021 8.27973 12.728 8.39541 12.6221C8.42296 12.5956 8.4505 12.5692 8.47254 12.5427C8.53313 12.4791 8.59923 12.4156 8.67085 12.368C8.76449 12.3097 8.90772 12.2674 9.01238 12.3362C9.11154 12.3997 9.12806 12.5162 9.05094 12.6645C9.02891 12.7068 9.00136 12.7545 8.97382 12.7968C9.15561 12.8604 9.35943 12.8498 9.50816 12.8286C9.68994 12.8021 9.86622 12.7386 10.0205 12.638C10.0425 12.6221 10.0645 12.6062 10.0866 12.5903C9.99292 12.5268 9.9158 12.4474 9.86071 12.3468C9.7891 12.225 9.73401 12.0927 9.70096 11.955C9.63486 11.7167 9.65138 11.4573 9.75054 11.2296C9.79461 11.1185 9.87724 11.0232 9.97639 10.9543C10.0755 10.8908 10.2078 10.8961 10.3014 10.9649C10.362 11.0179 10.395 11.0973 10.395 11.1714C10.5162 11.1926 10.6484 11.1608 10.7972 11.0708C10.9349 10.9914 11.0451 10.8802 11.1277 10.7478C10.9239 10.7743 10.7145 10.7743 10.5052 10.7426C10.395 10.7267 10.2959 10.6949 10.1967 10.642C10.0976 10.5837 10.0205 10.499 9.97088 10.3984C9.91029 10.3031 9.88825 10.1866 9.89927 10.0754C9.9213 9.96955 10.0039 9.86366 10.1196 9.86896C10.2408 9.87425 10.3179 9.99073 10.373 10.0754C10.4171 10.1443 10.4667 10.2025 10.5217 10.2608C10.5989 10.2131 10.6374 10.1125 10.6595 10.0437C10.6925 9.93249 10.709 9.81072 10.7201 9.69424C10.7311 9.58835 10.7476 9.48775 10.7751 9.38716C10.7972 9.28656 10.8468 9.19126 10.9129 9.11714C10.9845 9.04302 11.1002 9.00595 11.1938 9.06949C11.2874 9.13302 11.304 9.2548 11.315 9.33951C11.326 9.39775 11.326 9.46128 11.315 9.51952C11.3921 9.51423 11.4692 9.48246 11.5243 9.42951C11.6125 9.33951 11.6786 9.22832 11.7171 9.11184C11.7447 9.04302 11.7667 8.98478 11.7832 8.92654C11.7887 8.90536 11.7997 8.88418 11.8053 8.85771C11.8163 8.82065 11.8273 8.77829 11.8438 8.74123C11.8603 8.69358 11.932 8.54004 12.0862 8.55063C12.1964 8.56121 12.29 8.63534 12.3176 8.73593C12.3506 8.84712 12.3451 8.9636 12.3065 9.06949C12.2459 9.27068 12.0972 9.4401 11.8548 9.58835C11.6235 9.72601 11.4197 9.78425 11.2324 9.76307C11.1993 9.83719 11.1552 9.90602 11.1112 9.97485C10.9845 10.176 10.8468 10.3031 10.6815 10.3772C10.7586 10.4143 10.8357 10.4355 10.9184 10.4566C10.9845 10.4725 11.0506 10.4831 11.1112 10.4937C11.1497 10.5043 11.1938 10.5096 11.2324 10.5043C11.2489 10.4672 11.2654 10.4302 11.2819 10.3931L11.304 10.3455C11.3095 10.3349 11.315 10.3243 11.3205 10.3084C11.3425 10.2555 11.3646 10.1919 11.4141 10.1549C11.4692 10.1178 11.5408 10.1019 11.6014 10.1125C11.6841 10.1231 11.7447 10.1602 11.7832 10.2184C11.8548 10.3296 11.8163 10.499 11.7722 10.6314C12.0421 10.7002 12.3286 10.6208 12.5159 10.4196C12.5599 10.3772 12.593 10.3296 12.6205 10.2766C12.6316 10.2555 12.6426 10.2343 12.6536 10.2131C12.6701 10.1813 12.6866 10.1443 12.7087 10.1125C12.7417 10.0596 12.7968 10.0225 12.8574 9.99603C12.918 9.96426 12.9896 9.95367 13.0612 9.96955C13.1218 9.99603 13.1714 10.0384 13.1989 10.0913C13.2375 10.1443 13.2706 10.2025 13.2926 10.266C13.3311 10.409 13.243 10.5414 13.1659 10.6208C12.9841 10.7955 12.7472 10.9067 12.4938 10.9332C12.2074 10.9702 11.9099 10.9279 11.651 10.8802C11.4968 11.1185 11.2324 11.2614 11.0396 11.3355C10.8137 11.4255 10.5713 11.4679 10.3289 11.4573C10.3234 11.4785 10.3179 11.505 10.3124 11.5261C10.2959 11.5844 10.2794 11.6479 10.2683 11.7062C10.2298 11.8756 10.2133 12.1138 10.34 12.278L10.3565 12.2568C10.4501 12.1085 10.5768 11.955 10.7586 11.9391C10.8192 11.9338 10.8743 11.9497 10.9184 11.9921C10.9955 12.0662 11.0175 12.1932 11.012 12.2833C10.9955 12.4527 10.9129 12.6115 10.7862 12.728C10.6484 12.8498 10.4832 12.9451 10.3069 12.998C10.1141 13.0615 9.9158 13.1145 9.71198 13.1463C9.37595 13.1939 9.03442 13.1886 8.69839 13.1251C8.55516 13.2627 8.39542 13.3845 8.21363 13.4745C8.1916 13.4851 8.17507 13.4957 8.15303 13.5063C8.04837 13.5592 7.94371 13.6122 7.86108 13.6916C7.84455 13.7075 7.82803 13.7287 7.8115 13.7498L7.78946 15.6135C7.78946 15.64 7.78396 15.6611 7.77845 15.6876L7.77294 15.6982H7.76192C7.72887 15.7035 7.69031 15.7035 7.65726 15.7088C7.64624 15.7088 7.64073 15.7088 7.62971 15.7088C7.62421 15.7088 7.61319 15.7088 7.60768 15.7088C7.57463 15.73 7.54709 15.73 7.51403 15.73ZM7.33776 15.6823H7.34877C7.37632 15.6876 7.39835 15.6876 7.4259 15.6876C7.48649 15.6929 7.54709 15.6929 7.60768 15.6876C7.61319 15.6876 7.62421 15.6876 7.62971 15.6876C7.64073 15.6876 7.64624 15.6876 7.65726 15.6876C7.6848 15.6876 7.71785 15.6823 7.7454 15.677C7.75091 15.6611 7.7509 15.6453 7.7509 15.6294L7.77294 13.7551L7.77845 13.7498C7.79497 13.7234 7.81701 13.7022 7.83353 13.681C7.92167 13.5963 8.02634 13.5433 8.13651 13.4851C8.15854 13.4745 8.17507 13.4639 8.1971 13.4533C8.37338 13.3633 8.53864 13.2416 8.67635 13.1039L8.68186 13.0986H8.69288C9.02891 13.1621 9.36493 13.1674 9.70096 13.1198C9.89927 13.088 10.0976 13.0404 10.2904 12.9715C10.4612 12.9186 10.6264 12.8286 10.7586 12.7121C10.8798 12.6009 10.9569 12.4527 10.9735 12.2938C10.979 12.2091 10.9569 12.0927 10.8963 12.0344C10.8633 12.0026 10.8192 11.9868 10.7696 11.9921C10.6044 12.0079 10.4942 12.1456 10.4006 12.2885L10.3565 12.3574L10.34 12.3362C10.1857 12.1615 10.2022 11.8968 10.2408 11.7114C10.2518 11.6532 10.2739 11.5897 10.2904 11.5314C10.2959 11.505 10.3069 11.4732 10.3124 11.4467L10.3179 11.4308H10.3345C10.5768 11.4414 10.8192 11.4044 11.0451 11.3144C11.2379 11.2402 11.4968 11.0973 11.6455 10.8643L11.651 10.8537H11.6675C11.9264 10.9014 12.2239 10.949 12.5104 10.9067C12.7583 10.8802 12.9841 10.7743 13.1604 10.6049C13.232 10.5308 13.3146 10.4143 13.2761 10.2872C13.254 10.229 13.2265 10.1707 13.1879 10.1231C13.1604 10.0754 13.1218 10.0384 13.0722 10.0172C13.0172 10.0066 12.9566 10.0119 12.9015 10.0437C12.8464 10.0649 12.8023 10.1019 12.7693 10.1443C12.7472 10.1707 12.7362 10.2025 12.7197 10.2396C12.7087 10.2608 12.6977 10.2819 12.6866 10.3031C12.6536 10.3561 12.615 10.409 12.571 10.4514C12.3671 10.6684 12.0531 10.7478 11.7612 10.6684L11.7392 10.6631L11.7447 10.642C11.7832 10.5414 11.8328 10.3561 11.7667 10.2449C11.7392 10.1972 11.6841 10.1707 11.6125 10.1602C11.5574 10.1496 11.5023 10.1602 11.4527 10.1919C11.4141 10.2237 11.3921 10.2766 11.3756 10.3296C11.3701 10.3455 11.3646 10.3561 11.3591 10.3666L11.337 10.4143C11.3205 10.4566 11.304 10.499 11.2819 10.5414L11.2764 10.5519H11.2654C11.2158 10.5572 11.1663 10.5519 11.1167 10.5361C11.0561 10.5255 10.99 10.5149 10.9239 10.499C10.8247 10.4778 10.7256 10.4461 10.6374 10.3984L10.5989 10.3772L10.6429 10.3613C10.8137 10.2978 10.9624 10.1655 11.0946 9.95897C11.1387 9.89014 11.1828 9.81601 11.2158 9.74189L11.2213 9.72601H11.2379C11.4197 9.75248 11.6235 9.69424 11.8493 9.55658C12.0807 9.41893 12.2239 9.2548 12.279 9.06419C12.3176 8.9636 12.3176 8.85241 12.29 8.75182C12.2625 8.66711 12.1854 8.60357 12.0917 8.59828H12.0862C11.9705 8.59828 11.9099 8.72535 11.8934 8.7677C11.8769 8.80476 11.8659 8.84182 11.8548 8.88418C11.8493 8.90536 11.8383 8.93183 11.8328 8.95301C11.8163 9.01125 11.7942 9.06949 11.7667 9.13832C11.7281 9.26009 11.6565 9.37657 11.5629 9.47187C11.4913 9.5354 11.3976 9.57247 11.2985 9.57247H11.2764L11.2819 9.55129C11.293 9.48775 11.2985 9.42422 11.2874 9.36069C11.2764 9.28127 11.2599 9.17008 11.1828 9.11714C11.1112 9.06419 11.012 9.09596 10.9569 9.15949C10.8963 9.23362 10.8468 9.32362 10.8247 9.41363C10.7972 9.51423 10.7807 9.61482 10.7696 9.71542C10.7586 9.83719 10.7366 9.95367 10.7035 10.0701C10.676 10.1549 10.6319 10.2713 10.5328 10.319L10.5217 10.3243L10.5107 10.3137C10.4446 10.2555 10.3895 10.1866 10.34 10.1125C10.2849 10.0331 10.2188 9.93249 10.1196 9.9219C10.026 9.91661 9.95987 10.0066 9.94334 10.0913C9.93232 10.1919 9.95436 10.2978 10.0094 10.3878C10.0535 10.4831 10.1251 10.5625 10.2188 10.6155C10.3069 10.6631 10.4061 10.6949 10.5107 10.7108C10.7256 10.7426 10.9459 10.7426 11.1607 10.7108L11.2048 10.7055L11.1773 10.7531C11.1718 10.7584 11.1663 10.769 11.1663 10.7743C11.0836 10.912 10.9624 11.0285 10.8192 11.1132C10.654 11.2085 10.4997 11.2455 10.3675 11.2138L10.351 11.2085V11.1926C10.3565 11.1185 10.3289 11.0496 10.2739 11.002C10.1967 10.9437 10.0811 10.9384 9.99843 10.9967C9.90478 11.0602 9.82766 11.1502 9.78359 11.2508C9.68443 11.4732 9.66791 11.7167 9.73401 11.9497C9.76706 12.0821 9.82215 12.2091 9.88825 12.3309C9.94334 12.4315 10.026 12.5162 10.1251 12.5745L10.1472 12.5903L10.1251 12.6062C10.0976 12.6327 10.0645 12.6539 10.0315 12.675C9.87173 12.7756 9.68994 12.8445 9.50265 12.8709C9.3429 12.8974 9.11705 12.908 8.92424 12.8286L8.90221 12.818L8.91323 12.7968C8.94628 12.7492 8.97382 12.7015 9.00136 12.6486C9.03992 12.5745 9.08399 12.4368 8.97933 12.368C8.89119 12.3097 8.76449 12.3521 8.68737 12.3997C8.61576 12.4421 8.55516 12.5056 8.49457 12.5639C8.46703 12.5903 8.43948 12.6168 8.41745 12.6433C8.30177 12.7545 8.15304 12.8286 7.99328 12.8604C7.93269 12.8709 7.8721 12.8709 7.8115 12.8656H7.79497L7.8115 11.5155L7.82252 11.5103C8.15854 11.3249 8.3844 11.0073 8.43948 10.642V10.6261C8.43948 10.6102 8.44499 10.589 8.44499 10.5731V10.5572L8.46152 10.5519L8.48355 10.5414C8.66534 10.5149 8.84161 10.4566 9.00687 10.3719C9.10603 10.3243 9.18866 10.2608 9.25476 10.176C9.30985 10.0966 9.34841 10.0066 9.36493 9.91131C9.38697 9.82131 9.39248 9.7313 9.38146 9.64129C9.38146 9.57247 9.33739 9.50893 9.27129 9.48246C9.18315 9.45599 9.10603 9.52482 9.05645 9.59894C9.01789 9.66247 8.98484 9.7366 8.94628 9.80542C8.92975 9.84249 8.90772 9.88484 8.89119 9.9219C8.88017 9.94308 8.86916 9.96426 8.85814 9.98544C8.77551 10.1549 8.67085 10.3666 8.47254 10.4302L8.44499 10.4408V10.4143C8.44499 10.3613 8.43948 10.3031 8.43398 10.2449C8.42847 10.1972 8.41745 10.1496 8.41194 10.1178C8.41194 10.086 8.40643 10.0596 8.39541 10.0384C8.3844 9.98014 8.36787 9.9219 8.35135 9.86896C8.34033 9.8319 8.31279 9.80013 8.27973 9.77895C8.24117 9.76307 8.1916 9.77366 8.16405 9.80542C8.131 9.84249 8.11447 9.89014 8.10897 9.94308L8.04286 10.3931C8.03735 10.4566 8.02083 10.5255 7.99879 10.589C7.97676 10.6525 7.93269 10.7055 7.86659 10.732C7.85557 10.7373 7.84455 10.7373 7.83904 10.7426L7.8115 10.7478L7.84455 8.18001C7.85006 8.03176 7.93269 7.8994 8.0649 7.83057L8.79754 7.44937L8.80305 7.48114C8.80305 7.48643 8.80305 7.49172 8.80856 7.49172C8.94077 7.65585 9.0895 7.8041 9.26027 7.93117C9.38146 8.02118 9.56875 8.10059 9.77808 7.97353C9.94885 7.85705 10.0755 7.69821 10.1527 7.5129C10.1802 7.45466 10.2078 7.36995 10.1747 7.30112C10.1472 7.24288 10.0811 7.21641 9.98741 7.23229L9.9158 7.24288C9.70096 7.27994 9.47511 7.31701 9.26578 7.24288L9.22171 7.227L11.6565 5.9722L11.6675 5.98279C11.6896 6.00397 11.7116 6.01985 11.7281 6.03574C11.7997 6.08868 11.8824 6.12574 11.965 6.14692C12.1523 6.18928 12.3506 6.19457 12.5379 6.15751C12.7252 6.12574 12.9015 6.04103 13.0447 5.92455C13.0943 5.88219 13.1824 5.79748 13.1824 5.72336C13.1824 5.65453 13.1163 5.63335 13.0557 5.62806C12.9235 5.61747 12.7913 5.61217 12.6591 5.61217C12.593 5.61747 12.5214 5.61747 12.4498 5.60688L12.3892 5.59629L14.488 4.52151C14.521 4.50562 14.5486 4.48444 14.5706 4.45797C14.5596 4.42621 14.5486 4.39444 14.532 4.36267C14.521 4.3362 14.51 4.31502 14.499 4.28855V4.28325C14.499 4.26208 14.4935 4.24619 14.4824 4.22501C14.4714 4.20913 14.4604 4.19854 14.4494 4.18266L14.4439 4.17736C14.4274 4.1456 14.4053 4.11383 14.3778 4.07147C14.3668 4.0503 14.3502 4.03441 14.3392 4.01853C14.3007 4.01853 14.2566 4.03441 14.2235 4.0503L12.3506 5.01919L12.3892 4.95566C12.4608 4.84447 12.5434 4.74388 12.6426 4.64857C12.7142 4.57445 12.7803 4.49503 12.8354 4.41562C12.896 4.34149 12.929 4.25149 12.9345 4.16148C12.9345 4.08736 12.8739 4.01853 12.7913 4.01853C12.7032 4.01323 12.6316 4.06618 12.5654 4.11912C12.4167 4.24619 12.29 4.39973 12.2019 4.56916C12.0972 4.75976 12.0311 4.97154 12.0146 5.18861V5.1992L10.4667 5.99867L10.4777 5.95632C10.4942 5.88749 10.5162 5.81866 10.5493 5.74983C10.5768 5.69159 10.6044 5.63335 10.6374 5.57511C10.665 5.51687 10.698 5.45863 10.7256 5.3951C10.7862 5.28392 10.8357 5.16744 10.8688 5.05096C10.8963 4.95036 10.9184 4.83388 10.8578 4.77564C10.8302 4.74917 10.8027 4.73858 10.7641 4.74388C10.6484 4.74917 10.4942 4.87624 10.4006 4.98213C10.2573 5.14626 10.1582 5.34745 10.1196 5.55923C10.0976 5.6863 10.048 6.03574 10.1196 6.15221L10.1306 6.1681L8.74246 6.88286L8.73695 6.85638C8.72593 6.80873 8.72593 6.76108 8.73695 6.71343C8.74246 6.69755 8.74797 6.68167 8.75348 6.66578C8.75898 6.6446 8.76449 6.61813 8.77551 6.59695C8.78653 6.57048 8.79754 6.54401 8.80856 6.52283C8.81407 6.50695 8.81958 6.49636 8.8306 6.48047C8.90221 6.32164 8.8967 6.20516 8.81407 6.12574C8.78102 6.08868 8.72593 6.0728 8.67635 6.07809C8.62127 6.08868 8.57169 6.12045 8.54415 6.1628C8.46703 6.27399 8.43397 6.40106 8.4505 6.53342C8.46152 6.69225 8.50559 6.81403 8.5772 6.89345C8.58271 6.89874 8.58822 6.90403 8.59373 6.90933C8.59923 6.91462 8.60474 6.91992 8.61025 6.92521L8.63229 6.94639L7.78396 7.38583C7.64624 7.45466 7.48098 7.45996 7.33776 7.39113L6.45638 6.96757L6.46739 6.94639C6.53901 6.84579 6.57757 6.72932 6.57757 6.60754C6.59409 6.47518 6.56104 6.34282 6.48392 6.23163C6.45087 6.18928 6.4068 6.15751 6.35171 6.14692C6.30214 6.14163 6.25256 6.1628 6.214 6.19457C6.11484 6.29517 6.14789 6.44341 6.19747 6.5493C6.20298 6.56519 6.20849 6.57578 6.21951 6.59166C6.23603 6.61813 6.24705 6.6446 6.25807 6.67108C6.26908 6.70814 6.2801 6.7452 6.29663 6.78226C6.30214 6.80873 6.30213 6.83521 6.30213 6.85638V6.88815L4.90845 6.22104L4.90294 6.19457C4.96354 6.0675 4.91947 5.72336 4.89743 5.61747C4.85887 5.40569 4.75972 5.2045 4.61649 5.04037C4.51734 4.93448 4.3631 4.80741 4.25292 4.80212C4.21436 4.80212 4.18682 4.8127 4.15928 4.83388C4.09868 4.89742 4.12072 5.01919 4.14826 5.1092C4.18682 5.22568 4.2364 5.34216 4.29149 5.45334C4.31903 5.50628 4.34106 5.55923 4.36861 5.61217C4.40166 5.67571 4.43471 5.73924 4.46776 5.80807C4.50081 5.87161 4.52285 5.94043 4.53937 6.00397L4.55039 6.04632L2.8317 5.22568V5.21509C2.80415 5.02448 2.74356 4.84447 2.64991 4.68034C2.55627 4.51092 2.43508 4.36267 2.28083 4.2356C2.21473 4.17736 2.14312 4.12971 2.05498 4.13501C1.97235 4.1403 1.91176 4.20384 1.91176 4.28325C1.92277 4.37326 1.95583 4.46327 2.01091 4.53739C2.07151 4.6221 2.13761 4.70152 2.20922 4.77035C2.27533 4.83918 2.33592 4.90801 2.39652 4.98213L2.4516 5.05096L0.765961 4.24619C0.688841 4.20913 0.595194 4.20913 0.512564 4.2409C0.501547 4.26208 0.49053 4.27796 0.485021 4.29914C0.462987 4.34679 0.440952 4.39444 0.424426 4.44209C0.4079 4.48974 0.391375 4.5321 0.380357 4.57975C0.4079 4.64328 0.45197 4.69093 0.512564 4.7174L2.53974 5.6863H2.35245C2.22024 5.6863 2.08252 5.69159 1.95032 5.70218C1.83464 5.71806 1.82362 5.76572 1.82362 5.79748C1.82362 5.87161 1.90625 5.94573 1.96133 5.99867C2.10456 6.11515 2.28083 6.19457 2.46813 6.23163C2.65542 6.26869 2.85373 6.2634 3.04103 6.22104C3.12916 6.19987 3.21179 6.1628 3.2779 6.10986L3.32747 6.0675L5.82288 7.25877L5.77331 7.27465C5.56949 7.33818 5.35465 7.30112 5.14532 7.26936L5.07922 7.25877C4.98557 7.24288 4.91947 7.26406 4.89193 7.32759C4.86989 7.38054 4.8754 7.44937 4.91396 7.53938C4.99108 7.72468 5.12329 7.88881 5.29406 8C5.49787 8.12707 5.68517 8.04765 5.80636 7.95764C5.97713 7.83057 6.13137 7.68233 6.25807 7.5182C6.26357 7.5129 6.26357 7.50761 6.26357 7.50761V7.47584L7.05131 7.85175C7.17801 7.90999 7.26064 8.03706 7.26064 8.17472L7.22758 10.822H7.20555C7.18352 10.822 7.16699 10.8167 7.14496 10.8114C7.07885 10.7849 7.02927 10.732 7.01275 10.6684C6.99071 10.6049 6.9797 10.5414 6.96868 10.4725L6.90258 10.0225C6.89707 9.96955 6.88054 9.9219 6.84749 9.88484C6.81995 9.85307 6.77037 9.84249 6.73181 9.85837C6.69876 9.87425 6.67121 9.90602 6.6602 9.94308C6.63816 9.99603 6.62714 10.049 6.61613 10.1072C6.60511 10.1337 6.5996 10.1602 6.5996 10.1866C6.59409 10.229 6.58308 10.2713 6.57757 10.319C6.57206 10.3719 6.56655 10.4302 6.56655 10.4884V10.5149L6.53901 10.5043C6.3407 10.4408 6.23603 10.229 6.1534 10.0596C6.14238 10.0384 6.13137 10.0172 6.12035 9.99603C6.10382 9.96426 6.0873 9.93249 6.07628 9.90073C6.03772 9.82131 5.99916 9.74718 5.9606 9.67836C5.91653 9.60423 5.8339 9.5354 5.74576 9.56188C5.68517 9.58835 5.6411 9.65188 5.6411 9.72071C5.63008 9.81072 5.63559 9.90602 5.65763 9.99603C5.67415 10.0913 5.71271 10.1866 5.7678 10.2608C5.8339 10.3402 5.91653 10.409 6.01569 10.4566C6.18094 10.5414 6.35171 10.5996 6.53901 10.6261L6.54452 10.6314L6.55553 10.6367L6.57206 10.642L6.57757 10.6578C6.57757 10.679 6.58308 10.7055 6.58308 10.7267C6.64367 11.1026 6.87503 11.4202 7.22208 11.6056L7.23309 11.6109L7.21657 12.9662H7.20004C7.15046 12.9715 7.09538 12.9662 7.0458 12.9609C6.88605 12.9292 6.73732 12.8551 6.61613 12.7439C6.59409 12.7227 6.57206 12.6962 6.54452 12.675C6.48392 12.6115 6.41782 12.548 6.3407 12.5003C6.25807 12.4474 6.13688 12.4103 6.04874 12.4686C5.93306 12.5374 5.99365 12.6856 6.0267 12.7492C6.05425 12.8021 6.08179 12.8498 6.11484 12.8974L6.12586 12.9186L6.10382 12.9292C5.94958 12.9927 5.75678 13.0033 5.52542 12.9715C5.33812 12.9451 5.15634 12.8762 4.99659 12.7756C4.96354 12.7545 4.93049 12.7333 4.90294 12.7068L4.88091 12.6909L4.90294 12.675C5.0021 12.6168 5.08473 12.5321 5.13981 12.4315C5.21143 12.3097 5.261 12.1827 5.29406 12.0503C5.36016 11.8173 5.34363 11.5738 5.24448 11.3514C5.20041 11.2455 5.1288 11.1608 5.02964 11.0973C4.94701 11.0443 4.83133 11.0496 4.75421 11.1079C4.70463 11.1555 4.67158 11.2244 4.67709 11.2985V11.3144L4.66056 11.3197C4.52836 11.3514 4.37411 11.3144 4.20886 11.2191C4.06563 11.1343 3.94995 11.0179 3.86181 10.8855C3.8563 10.8749 3.85079 10.8696 3.85079 10.8643L3.82325 10.8167L3.86732 10.822C4.08216 10.8537 4.3025 10.8537 4.51734 10.822C4.622 10.8061 4.72116 10.7743 4.8093 10.7267C4.89743 10.6737 4.96905 10.5943 5.01312 10.499C5.0682 10.409 5.09575 10.3031 5.07922 10.1972C5.0682 10.1284 5.00761 10.0225 4.90294 10.0278C4.79828 10.0331 4.73768 10.1284 4.68811 10.2078L4.6826 10.2131C4.63302 10.2872 4.57793 10.3561 4.51183 10.4143L4.50081 10.4249L4.4898 10.4196C4.39064 10.3719 4.34657 10.2555 4.31903 10.1707C4.28598 10.0543 4.26394 9.93249 4.25292 9.81601C4.24191 9.71542 4.22538 9.60953 4.19784 9.51423C4.1758 9.41892 4.13173 9.32892 4.06563 9.2548C4.01055 9.19656 3.91139 9.16479 3.83978 9.21244C3.77367 9.26009 3.74613 9.36069 3.73511 9.45599C3.7241 9.51952 3.7296 9.58305 3.74062 9.64659L3.74613 9.66777H3.7241C3.62494 9.66777 3.53129 9.63071 3.45968 9.56717C3.36603 9.47187 3.29442 9.35539 3.25586 9.23362C3.23383 9.18067 3.21179 9.12243 3.18976 9.0536C3.18425 9.03243 3.17323 9.00595 3.16772 8.98478C3.15671 8.94771 3.14569 8.91065 3.12916 8.87359C3.11264 8.83124 3.05204 8.70417 2.93085 8.70417C2.83721 8.71476 2.76009 8.773 2.73805 8.85771C2.71051 8.9583 2.71602 9.06949 2.74907 9.17008C2.80966 9.36598 2.95289 9.52482 3.17874 9.66777C3.4046 9.80542 3.60841 9.85837 3.7902 9.83719H3.80673L3.81223 9.85308C3.85079 9.9272 3.88936 10.0013 3.93342 10.0701C4.07114 10.2819 4.21436 10.4143 4.38513 10.4725L4.4292 10.4884L4.39064 10.5096C4.3025 10.5572 4.20335 10.589 4.10419 10.6102C4.03809 10.6261 3.97198 10.6367 3.91139 10.6473C3.86181 10.6578 3.81223 10.6631 3.76817 10.6578H3.75715L3.75164 10.6473C3.7241 10.589 3.70206 10.5361 3.68003 10.4725C3.67452 10.4619 3.66901 10.4514 3.66901 10.4355C3.64698 10.3825 3.62494 10.3243 3.58638 10.2925C3.54231 10.2608 3.48722 10.2502 3.43214 10.2608C3.36053 10.2713 3.30544 10.2978 3.2779 10.3455C3.20628 10.4566 3.26137 10.642 3.29993 10.7426L3.30544 10.7637L3.28341 10.769C2.99145 10.8484 2.68296 10.769 2.47364 10.5519C2.42957 10.5043 2.39101 10.4566 2.35796 10.4037C2.34694 10.3825 2.33592 10.3613 2.3249 10.3402C2.30838 10.3084 2.29185 10.2766 2.27533 10.2449C2.24227 10.1972 2.19821 10.1655 2.14863 10.1443C2.09354 10.1125 2.03295 10.1072 1.97235 10.1178C1.92828 10.139 1.88421 10.176 1.85667 10.2237C1.81811 10.2766 1.78506 10.3296 1.76302 10.3931C1.72997 10.5149 1.80709 10.6367 1.8787 10.7108C2.04947 10.8802 2.28083 10.9861 2.52872 11.0126C2.80966 11.0496 3.10162 11.0073 3.37154 10.9543L3.38807 10.949L3.39358 10.9596C3.54231 11.1926 3.80122 11.3355 3.99402 11.415C4.21987 11.505 4.46225 11.542 4.70463 11.5314H4.72116L4.74319 11.6161C4.75972 11.6797 4.78175 11.7485 4.79277 11.8173C4.83133 12.0026 4.84786 12.2674 4.69361 12.4421L4.67709 12.4633L4.63302 12.3944C4.53937 12.2515 4.43471 12.1138 4.26394 12.0979C4.21436 12.0927 4.1703 12.1085 4.13724 12.1403C4.07114 12.1985 4.05461 12.315 4.06012 12.3997C4.07665 12.5586 4.15377 12.7068 4.27496 12.818C4.40717 12.9345 4.56692 13.0245 4.73768 13.0774C4.93049 13.141 5.1288 13.1939 5.32711 13.2257C5.66313 13.2733 6.00467 13.268 6.33519 13.2045H6.3462L6.35171 13.2098C6.49494 13.3527 6.65469 13.4692 6.83096 13.5592L6.86402 13.5751C6.9797 13.6334 7.10089 13.6916 7.19453 13.7816C7.19453 13.7816 7.20004 13.7869 7.20555 13.7922C7.26615 13.8557 7.31572 13.9351 7.34327 14.0199V14.0251V14.0304L7.32123 15.6611C7.32123 15.6453 7.32674 15.6664 7.33776 15.6823Z" fill="white"/>
<path d="M7.50826 16C7.47521 16 7.44216 16 7.40911 16C7.38707 16 7.35402 16 7.32097 15.9947H7.29343C7.23283 15.9894 7.17224 15.9788 7.11164 15.9682L7.05105 15.9576C6.82519 15.9153 6.61036 15.8359 6.41205 15.7194L1.09071 12.7651C0.418656 12.3944 0 11.7009 0 10.9543V5.04566C0 4.88153 0.0220345 4.7174 0.0605949 4.55857C0.0605949 4.55328 0.0605949 4.54798 0.0605949 4.54269V4.53739L0.0716122 4.50033C0.0881381 4.44738 0.104664 4.38915 0.126698 4.3362C0.148733 4.27796 0.170768 4.21972 0.198311 4.16678C0.209328 4.1403 0.220345 4.11383 0.236871 4.09265C0.253397 4.06618 0.264414 4.03971 0.28094 4.00794L0.297466 3.97617C0.336026 3.90735 0.385604 3.84381 0.435182 3.78028C0.611458 3.55791 0.831803 3.36731 1.0852 3.22965L6.40654 0.275314C7.07859 -0.100596 7.9159 -0.100596 8.58795 0.275314L13.9093 3.22965C14.1517 3.36201 14.361 3.53673 14.5318 3.74851L14.5483 3.76969C14.5593 3.78557 14.5703 3.79616 14.5813 3.81204C14.6089 3.84381 14.6254 3.87028 14.6364 3.88617L14.6474 3.89676C14.6805 3.94441 14.708 3.98676 14.7301 4.02912C14.7356 4.03971 14.7466 4.05559 14.7521 4.06618C14.7686 4.09265 14.7797 4.11913 14.7962 4.1456C14.8127 4.17207 14.8237 4.20384 14.8347 4.23031C14.8513 4.27267 14.8678 4.31502 14.8843 4.35208C14.9174 4.44738 14.9449 4.54269 14.9669 4.63799C14.9945 4.76506 15.0055 4.90271 15.0055 5.03508V10.9437C15.0055 11.6903 14.5869 12.3839 13.9203 12.7598L8.59346 15.7194C8.38414 15.8359 8.15277 15.9206 7.9159 15.9629C7.87734 15.9682 7.83878 15.9735 7.80022 15.9841C7.75615 15.9894 7.71208 15.9947 7.67352 15.9947H7.65149C7.64047 15.9947 7.62945 15.9947 7.61844 15.9947C7.57988 16 7.54132 16 7.50826 16ZM7.65149 15.9947C7.64598 15.9947 7.64598 15.9947 7.65149 15.9947V15.9947ZM7.41462 15.4176H7.43114C7.48072 15.4229 7.5303 15.4229 7.57988 15.4176H7.59089C7.60191 15.4176 7.61844 15.4176 7.62945 15.4123C7.657 15.4123 7.67903 15.407 7.70657 15.407C7.73412 15.4017 7.76717 15.3964 7.79471 15.3911C7.96548 15.3594 8.13074 15.3011 8.28498 15.2164L13.6063 12.2621C14.0911 11.9921 14.3941 11.4891 14.3885 10.9543V5.04566C14.3885 4.95036 14.3775 4.84977 14.361 4.75447C14.3445 4.68564 14.3279 4.61681 14.3059 4.55328C14.2949 4.5268 14.2839 4.49504 14.2674 4.46327C14.2563 4.44209 14.2508 4.42621 14.2398 4.40503C14.2288 4.38385 14.2178 4.36797 14.2068 4.34679C14.1957 4.33091 14.1902 4.31502 14.1792 4.29914C14.1682 4.27267 14.1517 4.25149 14.1296 4.21972C14.1241 4.21443 14.1186 4.20384 14.1131 4.19854C14.1076 4.19325 14.1076 4.18795 14.1021 4.17737C14.0856 4.16148 14.0746 4.1403 14.058 4.12442L14.0415 4.10324C13.9203 3.9497 13.7661 3.82793 13.5953 3.73263L8.27396 0.778292C7.7892 0.508272 7.18325 0.508272 6.69849 0.778292L1.38817 3.73792C1.20639 3.83852 1.04664 3.97617 0.919941 4.13501C0.88689 4.17736 0.853838 4.22502 0.826295 4.26737L0.815277 4.28855C0.80426 4.30973 0.787734 4.3362 0.776717 4.35738L0.771208 4.36267C0.7657 4.37856 0.754682 4.39444 0.749174 4.41032L0.743665 4.41562C0.727139 4.45268 0.710613 4.49504 0.694087 4.5321V4.53739C0.68307 4.56916 0.672053 4.59563 0.661036 4.6274C0.661036 4.63799 0.655527 4.65387 0.650018 4.66446L0.64451 4.68034C0.622475 4.80212 0.605949 4.92389 0.605949 5.04566V10.9543C0.605949 11.4944 0.908924 11.9974 1.39368 12.2674L6.71502 15.2217C6.85824 15.3011 7.01249 15.3594 7.17775 15.3911L7.21631 15.3964C7.25487 15.4017 7.29343 15.407 7.33199 15.4123H7.37055L7.39258 15.4176C7.4036 15.4176 7.40911 15.4176 7.41462 15.4176Z" fill="white"/>
</svg>
