<svg width="14" height="16" viewBox="0 0 14 16" fill="none" xmlns="http://www.w3.org/2000/svg">
<path d="M5.20071 1.07464C4.89988 0.787236 4.88796 0.616129 5.14531 0.265438C5.32955 0.0143294 5.42714 0 6.96577 0C7.8599 0 8.70055 0.0556432 8.83358 0.123584C8.99076 0.204063 9.07514 0.373499 9.07514 0.609442C9.07514 0.923358 8.59008 1.4436 5.43326 4.51577C3.26527 6.62552 1.7173 8.22747 1.60811 8.47417C1.33079 9.10139 1.45286 10.0323 1.88382 10.5717C2.23651 11.0136 3.0485 11.4559 3.5136 11.4595C4.43413 11.4668 4.69664 11.2754 7.45052 8.58904C9.65717 6.43627 10.1986 5.96786 10.4782 5.96894C10.9365 5.97072 11.2911 6.46375 11.1053 6.84083C11.0341 6.98589 9.8253 8.23295 8.41937 9.61208C5.5898 12.3881 5.17752 12.6729 3.86854 12.7547C2.45811 12.8427 1.21902 12.2051 0.489488 11.016C0.219898 10.5763 0.0575622 10.2851 0.0140799 9.49268C-0.073851 7.89119 0.151937 7.67305 3.59799 4.34748L3.63503 4.31181C5.25225 2.75109 6.5754 1.43799 6.5754 1.39381C6.5754 1.34963 6.32255 1.31345 6.01302 1.31345C5.61717 1.31345 5.37658 1.24264 5.20071 1.07464Z" fill="#257CFF"/>
<path d="M5.51509 6.48053C8.12146 3.9157 8.56336 3.55868 9.49066 3.26924C10.57 2.93217 12.0796 3.31069 12.9731 4.14221C13.6785 4.79869 14.0067 5.61245 13.9999 6.68648C13.9909 8.1135 13.8283 8.33869 10.4128 11.6583L7.41962 14.5672H7.96975C8.67127 14.5672 9.07516 14.8289 9.07516 15.2836C9.07516 15.8805 8.72634 16.0001 6.98512 16.0001C5.6172 16.0001 5.42362 15.9742 5.20073 15.7613C5.0632 15.6299 4.95079 15.4115 4.95079 15.276C4.95079 15.114 6.19535 13.8166 8.58752 11.4849C10.5877 9.53537 12.3135 7.77904 12.423 7.58204C12.6829 7.11335 12.6768 6.1297 12.4107 5.6479C11.8909 4.70641 10.5249 4.26545 9.52803 4.71739C9.26069 4.83845 8.04899 5.93901 6.60505 7.37174C5.2484 8.71792 4.00417 9.86814 3.84022 9.92774C3.41732 10.0816 2.95093 9.77072 2.95093 9.33477C2.95093 9.06539 3.4302 8.5319 5.51509 6.48053Z" fill="#257CFF"/>
</svg>
