<svg width="16" height="16" viewBox="0 0 16 16" fill="none" xmlns="http://www.w3.org/2000/svg">
<path fill-rule="evenodd" clip-rule="evenodd" d="M5.08949 1.17994C5.31156 1.67626 5.68654 2.25643 6.06578 2.67168C6.67601 2.47776 7.32582 2.37315 7.99998 2.37315C11.5346 2.37315 14.4 5.2487 14.4 8.7959C14.4 12.343 11.5346 15.2186 7.99998 15.2186C4.46535 15.2186 1.59998 12.343 1.59998 8.7959C1.59998 7.13757 2.22622 5.62606 3.25432 4.48652C2.98327 3.93323 2.51479 3.3596 2.07951 2.98407C1.87155 2.80466 1.85558 2.43606 2.08261 2.28169L4.19781 0.843351C4.45671 0.667295 4.96138 0.893615 5.08949 1.17994ZM5.313 8.44294C4.04414 8.34798 3.25137 9.74814 3.82059 10.8901C4.58687 12.4274 6.17059 13.483 7.99998 13.483C10.5793 13.483 12.6702 11.3846 12.6702 8.79614C12.6702 7.06083 11.7305 5.54578 10.3339 4.73559C10.0597 4.57654 9.70333 4.67366 9.60829 4.97681L9.27109 6.05262C8.78901 7.5903 7.31573 8.5927 5.71391 8.47294L5.313 8.44294Z" fill="white"/>
</svg>
