<svg width="16" height="13" viewBox="0 0 16 13" fill="none" xmlns="http://www.w3.org/2000/svg">
<path d="M16 1.58333C15.4286 1.83333 14.7755 2 14.1225 2.08333C14.7755 1.66667 15.3469 1 15.5918 0.250002C14.9388 0.666669 14.2857 0.916669 13.4694 1.08334C12.898 0.416669 12 0 11.102 0C9.30612 0 7.83673 1.5 7.83673 3.33333C7.83673 3.58333 7.83674 3.83333 7.91837 4.08333C5.22449 3.91666 2.77551 2.58333 1.14285 0.583331C0.897955 1.08333 0.734689 1.66666 0.734689 2.25C0.734689 3.41666 1.30612 4.41667 2.20408 5C1.63265 5 1.14285 4.83333 0.734689 4.58333C0.734689 6.16666 1.87754 7.58333 3.34693 7.83333C3.10203 7.91666 2.77551 7.91666 2.44898 7.91666C2.20408 7.91666 2.04081 7.91666 1.79592 7.83333C2.20408 9.16666 3.42857 10.1667 4.89796 10.1667C3.7551 11.0833 2.36735 11.5833 0.816327 11.5833C0.571429 11.5833 0.326531 11.5833 0 11.5C1.46939 12.4167 3.18367 13 5.06122 13C11.102 13 14.3673 7.91666 14.3673 3.5V3.08333C15.0204 2.83333 15.5918 2.24999 16 1.58333Z" fill="#B5C4E3"/>
</svg>
