<svg width="16" height="14" viewBox="0 0 16 14" fill="none" xmlns="http://www.w3.org/2000/svg">
<g clip-path="url(#clip0_140_6399)">
<path d="M2.26814 1.95997H13.6967C13.8302 1.95991 13.9636 1.96821 14.096 1.98482C14.0511 1.67604 13.9429 1.37937 13.7778 1.11269C13.6128 0.846005 13.3943 0.614841 13.1357 0.433131C12.877 0.251421 12.5835 0.122928 12.2727 0.0554007C11.962 -0.012127 11.6406 -0.0172912 11.3278 0.0402193L1.92885 1.61277H1.91814C1.32816 1.72333 0.803516 2.05045 0.451351 2.52732C0.98192 2.15748 1.61704 1.95915 2.26814 1.95997ZM13.6967 2.79997H2.26814C1.66213 2.80062 1.08113 3.03683 0.652623 3.45677C0.224112 3.87671 -0.0169164 4.44608 -0.0175781 5.03997V11.76C-0.0169164 12.3539 0.224112 12.9232 0.652623 13.3432C1.08113 13.7631 1.66213 13.9993 2.26814 14H13.6967C14.3027 13.9993 14.8837 13.7631 15.3122 13.3432C15.7407 12.9232 15.9818 12.3539 15.9824 11.76V5.03997C15.9818 4.44608 15.7407 3.87671 15.3122 3.45677C14.8837 3.03683 14.3027 2.80062 13.6967 2.79997ZM12.0003 9.51997C11.7742 9.51997 11.5533 9.45428 11.3653 9.33122C11.1774 9.20815 11.0309 9.03323 10.9444 8.82858C10.8579 8.62392 10.8353 8.39873 10.8794 8.18147C10.9235 7.96421 11.0323 7.76465 11.1922 7.60801C11.352 7.45138 11.5556 7.34471 11.7773 7.30149C11.999 7.25827 12.2288 7.28045 12.4376 7.36522C12.6465 7.44999 12.825 7.59355 12.9505 7.77773C13.0761 7.96191 13.1431 8.17845 13.1431 8.39997C13.1431 8.69701 13.0227 8.98189 12.8084 9.19193C12.5941 9.40197 12.3034 9.51997 12.0003 9.51997Z" fill="#222A3A"/>
<path d="M0 7.40251V3.92001C0 3.16156 0.428571 1.89001 1.91607 1.61456C3.17857 1.38251 4.42857 1.38251 4.42857 1.38251C4.42857 1.38251 5.25 1.94251 4.57143 1.94251C3.89286 1.94251 3.91071 2.80001 4.57143 2.80001C5.23214 2.80001 4.57143 3.62251 4.57143 3.62251L1.91071 6.58001L0 7.40251Z" fill="#222A3A"/>
</g>
<defs>
<clipPath id="clip0_140_6399">
<rect width="16" height="14" fill="white"/>
</clipPath>
</defs>
</svg>
