<svg width="44" height="44" viewBox="0 0 44 44" fill="none" xmlns="http://www.w3.org/2000/svg">
<path d="M22 44C34.1503 44 44 34.1503 44 22C44 9.84974 34.1503 0 22 0C9.84974 0 0 9.84974 0 22C0 34.1503 9.84974 44 22 44Z" fill="#313B52"/>
<path d="M29.8817 20.6759C29.2132 20.038 29.2132 19.0038 29.8817 18.3659C30.5502 17.728 31.634 17.728 32.3025 18.3659C32.971 19.0038 32.971 20.038 32.3025 20.6759C31.634 21.3137 30.5502 21.3137 29.8817 20.6759ZM24.1323 26.1621C23.6309 25.6837 23.6309 24.908 24.1323 24.4296C24.6336 23.9512 25.4465 23.9512 25.9479 24.4296C26.4492 24.908 26.4492 25.6837 25.9479 26.1621C25.4465 26.6405 24.6336 26.6405 24.1323 26.1621ZM33.2103 23.2746C32.7089 22.7962 32.7089 22.0205 33.2103 21.5421C33.7117 21.0637 34.5245 21.0637 35.0259 21.5421C35.5273 22.0205 35.5273 22.7962 35.0259 23.2746C34.5245 23.753 33.7117 23.753 33.2103 23.2746ZM30.1843 26.1621C29.6829 25.6837 29.6829 24.908 30.1843 24.4296C30.6857 23.9512 31.4985 23.9512 31.9999 24.4296C32.5013 24.908 32.5013 25.6837 31.9999 26.1621C31.4985 26.6405 30.6857 26.6405 30.1843 26.1621ZM36.5389 25.8733C36.2047 25.5544 36.2047 25.0373 36.5389 24.7183C36.8732 24.3994 37.4151 24.3994 37.7493 24.7183C38.0836 25.0373 38.0836 25.5544 37.7493 25.8733C37.4151 26.1923 36.8732 26.1923 36.5389 25.8733ZM33.5129 28.7608C33.1787 28.4419 33.1787 27.9247 33.5129 27.6058C33.8471 27.2869 34.3891 27.2869 34.7233 27.6058C35.0575 27.9247 35.0575 28.4419 34.7233 28.7608C34.3891 29.0797 33.8471 29.0797 33.5129 28.7608ZM26.8557 23.5633C26.1872 22.9255 26.1872 21.8912 26.8557 21.2534C27.5242 20.6155 28.608 20.6155 29.2765 21.2534C29.945 21.8912 29.945 22.9255 29.2765 23.5633C28.608 24.2012 27.5242 24.2012 26.8557 23.5633ZM26.8557 17.7884C26.1872 17.1505 26.1872 16.1163 26.8557 15.4784C27.5242 14.8405 28.608 14.8405 29.2765 15.4784C29.945 16.1163 29.945 17.1505 29.2765 17.7884C28.608 18.4263 27.5242 18.4263 26.8557 17.7884ZM23.8297 20.6759C23.1612 20.038 23.1612 19.0038 23.8297 18.3659C24.4982 17.728 25.582 17.728 26.2505 18.3659C26.919 19.0038 26.919 20.038 26.2505 20.6759C25.582 21.3137 24.4982 21.3137 23.8297 20.6759ZM17.7495 20.6759C17.081 20.038 17.081 19.0038 17.7495 18.3659C18.418 17.728 19.5018 17.728 20.1703 18.3659C20.8388 19.0038 20.8388 20.038 20.1703 20.6759C19.5018 21.3137 18.418 21.3137 17.7495 20.6759ZM12.0001 26.1621C11.4987 25.6837 11.4987 24.908 12.0001 24.4296C12.5015 23.9512 13.3143 23.9512 13.8157 24.4296C14.3171 24.908 14.3171 25.6837 13.8157 26.1621C13.3143 26.6405 12.5015 26.6405 12.0001 26.1621ZM21.0781 23.2746C20.5768 22.7962 20.5768 22.0205 21.0781 21.5421C21.5795 21.0637 22.3924 21.0637 22.8937 21.5421C23.3951 22.0205 23.3951 22.7962 22.8937 23.2746C22.3924 23.753 21.5795 23.753 21.0781 23.2746ZM18.0521 26.1621C17.5508 25.6837 17.5508 24.908 18.0521 24.4296C18.5535 23.9512 19.3664 23.9512 19.8677 24.4296C20.3691 24.908 20.3691 25.6837 19.8677 26.1621C19.3664 26.6405 18.5535 26.6405 18.0521 26.1621ZM6.25068 25.8733C5.91644 25.5544 5.91644 25.0373 6.25068 24.7183C6.58493 24.3994 7.12684 24.3994 7.46109 24.7183C7.79533 25.0373 7.79533 25.5544 7.46109 25.8733C7.12684 26.1923 6.58493 26.1923 6.25068 25.8733ZM9.27669 28.7608C8.94245 28.4419 8.94245 27.9247 9.27669 27.6058C9.61094 27.2869 10.1529 27.2869 10.4871 27.6058C10.8213 27.9247 10.8213 28.4419 10.4871 28.7608C10.1529 29.0797 9.61094 29.0797 9.27669 28.7608ZM21.3807 28.7608C21.0465 28.4419 21.0465 27.9247 21.3807 27.6058C21.715 27.2869 22.2569 27.2869 22.5911 27.6058C22.9254 27.9247 22.9254 28.4419 22.5911 28.7608C22.2569 29.0797 21.715 29.0797 21.3807 28.7608ZM8.97409 23.2746C8.47273 22.7962 8.47273 22.0205 8.97409 21.5421C9.47546 21.0637 10.2883 21.0637 10.7897 21.5421C11.2911 22.0205 11.2911 22.7962 10.7897 23.2746C10.2883 23.753 9.47546 23.753 8.97409 23.2746ZM14.7235 23.5633C14.055 22.9255 14.055 21.8912 14.7235 21.2534C15.392 20.6155 16.4758 20.6155 17.1443 21.2534C17.8128 21.8912 17.8128 22.9255 17.1443 23.5633C16.4758 24.2012 15.392 24.2012 14.7235 23.5633ZM14.7235 17.7884C14.055 17.1505 14.055 16.1163 14.7235 15.4784C15.392 14.8405 16.4758 14.8405 17.1443 15.4784C17.8128 16.1163 17.8128 17.1505 17.1443 17.7884C16.4758 18.4263 15.392 18.4263 14.7235 17.7884ZM11.6975 20.6759C11.029 20.038 11.029 19.0038 11.6975 18.3659C12.366 17.728 13.4498 17.728 14.1183 18.3659C14.7868 19.0038 14.7868 20.038 14.1183 20.6759C13.4498 21.3137 12.366 21.3137 11.6975 20.6759Z" fill="white"/>
</svg>
