<svg width="44" height="44" viewBox="0 0 44 44" fill="none" xmlns="http://www.w3.org/2000/svg">
<path d="M22 44C34.1503 44 44 34.1503 44 22C44 9.84974 34.1503 0 22 0C9.84974 0 0 9.84974 0 22C0 34.1503 9.84974 44 22 44Z" fill="url(#paint0_linear_669_5331)"/>
<path d="M37.753 22.2676H33.8747C33.8747 14.3639 27.4451 7.95703 19.5132 7.95703C11.6796 7.95703 5.31075 14.2071 5.15488 21.9754C4.99362 30.0054 12.554 36.9784 20.6136 36.9784H21.6274C28.7329 36.9784 38.2564 31.4358 39.7444 24.6826C40.0192 23.4377 39.0324 22.2676 37.753 22.2676ZM13.7499 22.6197C13.7499 23.6766 12.8823 24.5411 11.8216 24.5411C10.7609 24.5411 9.89341 23.6763 9.89341 22.6197V19.5114C9.89341 18.4545 10.7609 17.59 11.8216 17.59C12.8823 17.59 13.7499 18.4545 13.7499 19.5114V22.6197ZM20.4454 22.6197C20.4454 23.6766 19.5779 24.5411 18.5173 24.5411C17.4565 24.5411 16.589 23.6763 16.589 22.6197V19.5114C16.589 18.4545 17.4569 17.59 18.5173 17.59C19.5779 17.59 20.4454 18.4545 20.4454 19.5114V22.6197Z" fill="url(#paint1_linear_669_5331)"/>
<defs>
<linearGradient id="paint0_linear_669_5331" x1="22" y1="0" x2="22" y2="44" gradientUnits="userSpaceOnUse">
<stop stop-color="#534BB1"/>
<stop offset="1" stop-color="#551BF9"/>
</linearGradient>
<linearGradient id="paint1_linear_669_5331" x1="22.4714" y1="7.95703" x2="22.4714" y2="36.9784" gradientUnits="userSpaceOnUse">
<stop stop-color="white"/>
<stop offset="1" stop-color="white" stop-opacity="0.82"/>
</linearGradient>
</defs>
</svg>
