<svg width="44" height="49" viewBox="0 0 44 49" fill="none" xmlns="http://www.w3.org/2000/svg">
<path fill-rule="evenodd" clip-rule="evenodd" d="M4.21493 15.8832L18.7752 26.0433V2.63648L10.601 5.14436L4.91739 0H2.17138L0.511007 5.40157L2.68227 12.5394L4.59809 13.3753L4.21493 15.8832ZM12.0698 26.7507H18.4559L13.1554 30.1588L0.00012207 29.1942V24.3071L3.95948 16.6549L9.19606 20.3202L12.0698 26.7507ZM8.62131 40.126L0.447147 29.9659L12.7084 30.8661L8.62131 40.126ZM18.1366 49L15.7098 46.5564L21.9682 44.3701L28.2265 46.5564L25.7998 49H18.1366ZM39.3383 13.3753L41.2541 12.5394L43.4892 5.40157L41.765 0H39.019L33.3993 5.14436L25.1612 2.63648V26.0433L39.7853 15.9475L39.3383 13.3753ZM24.4588 2.50787V26.9436L30.3978 30.8018L34.868 40.8333L32.8884 45.3989L28.9929 46.042L22.3514 43.727V41.6693H22.99L26.2469 36.9751V36.2677H21.9682H17.6895V36.9751L21.0103 41.6693H21.585V43.727L14.9435 46.042L11.048 45.3989L9.1322 40.8333L13.5386 30.8018L19.5415 26.9436V2.50787H24.4588ZM34.8042 20.3202L31.8666 26.7507H25.5444L30.781 30.1588L44.0001 29.1942V24.3071L40.0408 16.6549L34.8042 20.3202ZM43.4892 29.9659L35.3789 40.126L31.2918 30.8661L43.4892 29.9659Z" fill="#B5C4E3"/>
</svg>
