<svg width="382" height="205" viewBox="0 0 382 205" fill="none" xmlns="http://www.w3.org/2000/svg">
<g opacity="0.4" filter="url(#filter0_f_71_954)">
<path d="M24 100C24 58.0264 58.0264 24 100 24H282C323.974 24 358 58.0264 358 100V105C358 146.974 323.974 181 282 181H100C58.0264 181 24 146.974 24 105V100Z" fill="url(#paint0_linear_71_954)"/>
</g>
<path d="M26 100C26 59.1309 59.1309 26 100 26H282C322.869 26 356 59.1309 356 100V105C356 145.869 322.869 179 282 179H100C59.1309 179 26 145.869 26 105V100Z" fill="url(#paint1_linear_71_954)" stroke="url(#paint2_radial_71_954)" stroke-width="4"/>
<path d="M32.5 102.5C32.5 63.8401 63.8401 32.5 102.5 32.5H279.5C318.16 32.5 349.5 63.8401 349.5 102.5C349.5 141.16 318.16 172.5 279.5 172.5H102.5C63.8401 172.5 32.5 141.16 32.5 102.5Z" stroke="#D1AE1E"/>
<defs>
<filter id="filter0_f_71_954" x="0" y="0" width="382" height="205" filterUnits="userSpaceOnUse" color-interpolation-filters="sRGB">
<feFlood flood-opacity="0" result="BackgroundImageFix"/>
<feBlend mode="normal" in="SourceGraphic" in2="BackgroundImageFix" result="shape"/>
<feGaussianBlur stdDeviation="12" result="effect1_foregroundBlur_71_954"/>
</filter>
<linearGradient id="paint0_linear_71_954" x1="191" y1="24" x2="191" y2="181" gradientUnits="userSpaceOnUse">
<stop stop-color="#E7DF36"/>
<stop offset="1" stop-color="#EFB23D"/>
</linearGradient>
<linearGradient id="paint1_linear_71_954" x1="191" y1="24" x2="191" y2="181" gradientUnits="userSpaceOnUse">
<stop stop-color="#E7DF36"/>
<stop offset="1" stop-color="#EFB23D"/>
</linearGradient>
<radialGradient id="paint2_radial_71_954" cx="0" cy="0" r="1" gradientUnits="userSpaceOnUse" gradientTransform="translate(173.521 53.4532) scale(311.289 146.325)">
<stop stop-color="#F5D338"/>
<stop offset="0.00641864" stop-color="#D8B82E"/>
<stop offset="0.0972563" stop-color="#D5B22D"/>
<stop offset="0.1971" stop-color="#D3AC2C"/>
<stop offset="0.311" stop-color="#D3AB2C"/>
<stop offset="0.4497" stop-color="#D2AA2C"/>
<stop offset="0.683" stop-color="#CC9A29"/>
<stop offset="1" stop-color="#D7B82E"/>
</radialGradient>
</defs>
</svg>
