<svg width="24" height="34" viewBox="0 0 24 34" fill="none" xmlns="http://www.w3.org/2000/svg">
<path d="M23.25 8.81875V3.25C23.25 2.58696 22.9866 1.95107 22.5178 1.48223C22.0489 1.01339 21.413 0.75 20.75 0.75H3.25C2.58696 0.75 1.95107 1.01339 1.48223 1.48223C1.01339 1.95107 0.75 2.58696 0.75 3.25V8.875C0.750845 9.26296 0.841578 9.64545 1.01508 9.99246C1.18858 10.3395 1.44014 10.6415 1.75 10.875L9.91719 17L1.75 23.125C1.44014 23.3585 1.18858 23.6605 1.01508 24.0075C0.841578 24.3545 0.750845 24.737 0.75 25.125V30.75C0.75 31.413 1.01339 32.0489 1.48223 32.5178C1.95107 32.9866 2.58696 33.25 3.25 33.25H20.75C21.413 33.25 22.0489 32.9866 22.5178 32.5178C22.9866 32.0489 23.25 31.413 23.25 30.75V25.1812C23.249 24.795 23.1589 24.4142 22.9869 24.0684C22.8148 23.7227 22.5653 23.4212 22.2578 23.1875L14.0734 17L22.2578 10.8125C22.5656 10.579 22.8152 10.2776 22.9874 9.9318C23.1595 9.58596 23.2493 9.20504 23.25 8.81875ZM19.8484 24.5H4.08281L12 18.5625L19.8484 24.5Z" fill="#4E5E80"/>
</svg>
