<svg width="14" height="14" viewBox="0 0 14 14" fill="none" xmlns="http://www.w3.org/2000/svg">
<path d="M12.4345 5.27806C10.8423 3.69222 9.00311 2.15594 8.20703 1.36301C7.63056 0.768325 7.2188 0.297528 7.02664 0.0992981V0.000183105C7.02664 0.000183105 6.99919 0.0249619 6.97174 0.0497406C6.97174 0.0249619 6.97174 0.000183105 6.97174 0.000183105V0.0992981C6.80703 0.297528 6.39527 0.743546 5.79134 1.36301C5.02272 2.18071 3.15605 3.717 1.56389 5.27806C-0.0282631 6.8639 -0.165518 8.42496 0.136443 9.73824C0.438404 11.0515 1.94821 12.2657 4.33644 11.9931C5.07762 11.9188 5.62664 11.5966 6.0384 11.1754C5.76389 13.0338 4.66585 13.9754 4.66585 13.9754H9.27762C8.42664 13.1329 8.12468 11.9188 8.04233 11.1754C8.42664 11.5719 8.97566 11.894 9.71684 11.9683C12.1051 12.2409 13.6149 11.002 13.9168 9.71346C14.1639 8.42496 14.0541 6.83912 12.4345 5.27806Z" fill="#4E5E80"/>
</svg>
