<svg width="14" height="14" viewBox="0 0 14 14" fill="none" xmlns="http://www.w3.org/2000/svg">
<path d="M10.5447 0.000274019C7.79142 -0.0525562 7.14207 2.08707 7.0122 3.09084C6.85636 2.08707 6.23298 -0.0525562 3.47973 0.000274019C-0.156629 0.0795193 -0.624161 4.22669 0.622592 6.31348C1.89532 8.40027 2.54467 9.06065 3.8174 10.4078C5.0122 11.6493 6.44077 13.0757 6.96025 13.9474C6.96025 13.9474 6.98623 14.0531 7.0122 14.0267C7.03818 14.0531 7.06415 13.9474 7.06415 13.9474C7.58363 13.0757 9.0122 11.6757 10.207 10.4078C11.4797 9.08707 12.1291 8.40027 13.4018 6.31348C14.6486 4.22669 14.1551 0.0795193 10.5447 0.000274019Z" fill="#B5C4E3"/>
</svg>
