<svg width="14" height="14" viewBox="0 0 14 14" fill="none" xmlns="http://www.w3.org/2000/svg">
<path d="M13.0885 6.04893C11.5701 4.48706 9.23166 5.42418 9.23166 5.42418C9.8694 4.77104 10.3249 4.25988 10.2338 3.18077C10.2338 3.15237 10.2338 3.09558 10.2338 3.06718C10.2338 1.36333 8.77613 0.000244141 6.954 0.000244141C5.13187 0.000244141 3.67417 1.36333 3.67417 3.06718C3.67417 3.29436 3.70454 3.49314 3.73491 3.69193C3.79565 4.43026 4.19044 4.88463 4.73708 5.42418C4.73708 5.42418 2.39869 4.51546 0.880248 6.04893C-0.607822 7.61079 0.151397 9.45663 0.606929 10.053C1.09283 10.6493 1.79131 11.6716 3.49196 11.5581C4.98003 11.4445 5.19261 11.2173 6.22515 10.4505C6.10367 12.552 4.73708 14.0002 4.73708 14.0002H4.82819H6.98437H9.14055H9.23166C8.4117 13.1767 7.68285 11.3309 7.77396 10.4789C8.77613 11.2173 9.01908 11.4729 10.4768 11.5581C12.1774 11.6716 12.8759 10.6493 13.3618 10.053C13.8477 9.45663 14.6069 7.61079 13.0885 6.04893Z" fill="#4E5E80"/>
</svg>
