<svg width="16" height="14" viewBox="0 0 16 14" fill="none" xmlns="http://www.w3.org/2000/svg">
<path d="M15.9997 7.10575C15.964 6.15366 15.1516 5.41016 14.1813 5.44248C13.7513 5.45719 13.3423 5.63058 13.0319 5.92141C11.6643 5.00453 10.0578 4.50195 8.40653 4.46674L9.18574 0.778702L11.7567 1.31071C11.8282 1.96015 12.4195 2.43041 13.0794 2.35974C13.7393 2.28933 14.2171 1.70741 14.1453 1.05797C14.0735 0.408531 13.4825 -0.0617345 12.8226 0.00893676C12.4432 0.0470309 12.1029 0.264562 11.915 0.587968L8.97085 0.00893676C8.77091 -0.0351999 8.5707 0.0882776 8.52586 0.288206C8.52586 0.291096 8.52586 0.291096 8.52586 0.293986L7.63907 4.39633C5.96694 4.42287 4.33966 4.92834 2.95422 5.851C2.2495 5.19867 1.13875 5.23099 0.475927 5.92745C-0.186892 6.62103 -0.154058 7.7142 0.553607 8.36653C0.691083 8.4929 0.849113 8.60166 1.0253 8.67812C1.01328 8.85151 1.01328 9.0249 1.0253 9.1983C1.0253 11.846 4.16054 14 8.02721 14C11.8939 14 15.0291 11.8489 15.0291 9.1983C15.0411 9.0249 15.0411 8.85151 15.0291 8.67812C15.6324 8.38124 16.0117 7.7699 15.9997 7.10575ZM3.98729 8.29008C3.98729 7.63775 4.52785 7.10575 5.19067 7.10575C5.85349 7.10575 6.39405 7.63775 6.39405 8.29008C6.39405 8.94241 5.85349 9.47441 5.19067 9.47441C4.52492 9.46837 3.98729 8.94241 3.98729 8.29008ZM10.9654 11.5872V11.5402C10.1115 12.172 9.06641 12.4952 7.99731 12.4513C6.9282 12.4954 5.88339 12.172 5.02917 11.5402C4.91572 11.4049 4.93654 11.2023 5.07402 11.0907C5.19334 10.9937 5.36365 10.9937 5.48618 11.0907C6.20879 11.6108 7.0897 11.8754 7.9853 11.8342C8.88116 11.8812 9.76501 11.6284 10.4964 11.1143C10.6278 10.9879 10.8427 10.9908 10.9713 11.1201C11.0997 11.2493 11.0968 11.4608 10.9654 11.5872ZM10.8013 9.55954C10.7805 9.55954 10.7626 9.55954 10.7415 9.55954L10.7506 9.5154C10.0877 9.5154 9.54718 8.98339 9.54718 8.33107C9.54718 7.67874 10.0877 7.14673 10.7506 7.14673C11.4134 7.14673 11.9539 7.67874 11.9539 8.33107C11.9806 8.98366 11.4641 9.533 10.8013 9.55954Z" fill="#B5C4E3"/>
</svg>
