<svg width="21" height="12" viewBox="0 0 21 12" fill="none" xmlns="http://www.w3.org/2000/svg">
<path d="M11.8451 6.00033C11.8451 9.29372 9.19353 11.9636 5.92257 11.9636C2.65162 11.9636 0 9.29372 0 6.00033C0 2.70694 2.65162 0.0371094 5.92257 0.0371094C9.19349 0.0371094 11.8451 2.70694 11.8451 6.00033Z" fill="#B5C4E3"/>
<path d="M18.3405 6.00004C18.3405 9.1002 17.0147 11.6134 15.3793 11.6134C13.7438 11.6134 12.418 9.1002 12.418 6.00004C12.418 2.89987 13.7438 0.386719 15.3793 0.386719C17.0148 0.386719 18.3405 2.89987 18.3405 6.00004Z" fill="#B5C4E3"/>
<path d="M21.0009 6.00097C21.0009 8.77859 20.5346 11.0303 19.9594 11.0303C19.3842 11.0303 18.918 8.77859 18.918 6.00097C18.918 3.22336 19.3842 0.97168 19.9594 0.97168C20.5346 0.97168 21.0009 3.22336 21.0009 6.00097Z" fill="#B5C4E3"/>
</svg>
