<svg width="14" height="13" viewBox="0 0 14 13" fill="none" xmlns="http://www.w3.org/2000/svg">
<path fill-rule="evenodd" clip-rule="evenodd" d="M2.40441 0.989586C2.20915 0.794324 1.89257 0.794324 1.6973 0.989586C1.50204 1.18485 1.50204 1.50143 1.6973 1.69669L6.2935 6.29289L0.990197 11.5962C0.794934 11.7915 0.794934 12.108 0.990197 12.3033C1.18546 12.4986 1.50204 12.4986 1.6973 12.3033L7.00061 7L12.3039 12.3033C12.4992 12.4986 12.8158 12.4986 13.011 12.3033C13.2063 12.108 13.2063 11.7914 13.011 11.5962L7.70772 6.29289L12.3039 1.69671C12.4992 1.50144 12.4992 1.18486 12.3039 0.989598C12.1086 0.794336 11.7921 0.794336 11.5968 0.989598L7.00061 5.58579L2.40441 0.989586Z" fill="url(#paint0_linear_122_26893)"/>
<defs>
<linearGradient id="paint0_linear_122_26893" x1="7.0006" y1="0.84314" x2="7.0006" y2="12.4498" gradientUnits="userSpaceOnUse">
<stop stop-color="#E7DF36"/>
<stop offset="1" stop-color="#EFB23D"/>
</linearGradient>
</defs>
</svg>
